<svg width="176" height="166" viewBox="0 0 176 166" fill="none" xmlns="http://www.w3.org/2000/svg">
<path d="M21.1875 95.1836C22.7225 96.7106 25.0125 97.1936 27.1765 97.2666C29.3405 97.3396 31.5245 97.0746 33.6615 97.4156C37.3125 97.9966 40.4385 100.264 43.4105 102.463C45.3355 103.888 47.4155 105.559 47.7715 107.927C47.8015 108.129 47.8115 108.358 47.6785 108.513C47.4975 108.725 47.1645 108.683 46.8925 108.623C39.8825 107.075 32.8725 105.528 25.8625 103.98L21.1875 95.1836Z" fill="#396B7F"/>
<path d="M20.8684 115.625L0.757367 147.516C-0.0996334 148.875 0.773369 150.72 2.37737 150.81C2.77537 150.833 3.16237 150.745 3.51637 150.502C3.87337 150.257 4.12037 149.887 4.35937 149.525C11.6454 138.497 18.9324 127.469 26.2184 116.441C25.0844 115.614 23.9514 114.787 22.8174 113.961L20.8684 115.625Z" fill="#BC700C"/>
<path d="M90.8663 60.5305C89.6863 60.9915 88.5523 61.5725 87.4883 62.2615C88.4773 61.1655 89.4653 60.0705 90.4543 58.9755C90.7533 58.6445 91.0623 58.2195 91.1323 57.8045C91.1803 57.5155 90.8513 57.3095 90.6093 57.4745C89.5833 58.1725 88.5943 58.9225 87.6443 59.7215C88.5013 58.8675 89.2973 57.9525 90.0183 56.9815C90.2003 56.7365 89.9923 56.3845 89.6923 56.4445C89.2223 56.5385 88.7623 56.8485 88.3643 57.1465C86.9283 58.2265 85.4913 59.3055 84.0553 60.3855C85.2313 59.0835 86.4373 57.7285 87.1743 56.1585C87.3283 55.8315 86.9203 55.5275 86.6463 55.7635L81.7423 59.9995C81.4573 60.2455 80.9943 60.4875 80.7643 60.1505C80.6743 60.0185 80.6653 59.8465 80.7223 59.6975C80.9923 59.0035 81.4053 58.3415 81.5003 57.5975C81.5853 56.9315 81.3293 56.1585 80.7103 55.8985C80.0683 56.9455 79.4263 57.9935 78.7843 59.0405C78.1403 60.0915 77.4703 61.2575 77.6493 62.4775C77.7193 62.9555 77.9203 63.4185 77.8933 63.9015C77.8583 64.5425 77.4333 65.0855 77.0273 65.5825C76.9303 65.7005 76.8343 65.8195 76.7373 65.9375C74.9623 67.8365 72.7723 69.3355 70.6083 70.7965C68.0373 72.5325 65.4183 74.2965 63.4783 76.7175C61.5393 79.1385 60.3523 82.3665 61.1023 85.3765C61.1483 85.5615 61.2073 85.7545 61.3463 85.8855C61.5793 86.1035 61.9433 86.0725 62.2593 86.0265C64.7193 85.6715 67.2803 85.2765 69.3143 83.8465C70.2543 83.1855 71.0383 82.3295 71.8043 81.4725C74.8933 78.0135 82.0133 68.5295 81.9763 68.4675C85.4773 65.2145 88.2353 64.7385 91.2473 61.0625C91.4683 60.7925 91.1883 60.4045 90.8663 60.5305Z" fill="#F6A472"/>
<path d="M63.2858 57.1328C64.6678 62.3728 65.7588 67.6888 66.5518 73.0488C67.3508 72.5688 69.7078 71.2238 69.7078 71.2238C70.4478 74.1828 72.5828 77.7768 73.3228 80.7358C73.4388 81.2008 68.5668 85.3018 64.9068 86.7668C63.9818 87.1378 63.0478 87.5958 62.0518 87.5568C60.5618 87.4988 59.2738 86.3968 58.5678 85.0838C57.8628 83.7708 57.6338 82.2618 57.4168 80.7868C57.0308 78.1678 56.6448 75.5478 56.2578 72.9278L63.2858 57.1328Z" fill="#5B341A"/>
<path d="M79.6223 45.9329C79.3833 45.5029 79.0843 45.0949 78.9563 44.6189C78.5613 43.1409 79.9312 41.7039 79.8232 40.1769C79.7622 39.3269 79.2542 38.5869 78.8952 37.8139C78.2532 36.4299 78.0793 34.8849 77.7803 33.3889C77.4803 31.8939 77.0072 30.3549 75.9232 29.2819C74.9092 28.2789 72.0422 25.6439 71.7992 25.5659C71.0292 25.3209 68.7552 24.6149 65.5212 24.4239C63.5942 24.3109 59.3073 25.8339 57.8503 27.1009C57.0493 27.7979 56.5832 28.7979 55.8952 29.6069C54.2442 31.5489 51.4243 32.2789 49.9823 34.3809C48.3223 36.8009 48.9813 40.3319 47.1562 42.6289C47.3532 42.7229 48.0523 42.9899 49.1003 43.3749C49.6173 42.5289 50.2023 41.7239 50.8503 40.9739C50.9193 41.5499 50.9173 42.1349 50.8443 42.7109C50.7923 43.1269 50.7043 43.5519 50.7223 43.9659C51.2463 44.1559 51.8123 44.3599 52.4153 44.5759C52.7993 43.9699 53.2602 43.4129 53.7862 42.9249C53.8002 43.6439 53.8153 44.3629 53.8293 45.0819C54.0973 45.1779 54.3702 45.2749 54.6472 45.3739C55.1022 44.9769 55.5573 44.5789 56.0123 44.1819C56.0273 44.7299 55.9883 45.2789 55.9003 45.8199C63.7063 48.5969 73.8783 52.1589 73.8783 52.1589L75.5533 49.9809L75.3853 52.1589L79.2383 52.9969C79.2383 52.9969 80.7303 47.9259 79.6223 45.9329Z" fill="#C23F37"/>
<path d="M62.5545 34.0213C62.1085 35.9023 62.3145 36.2583 61.8685 38.1383C60.6195 37.7233 58.9395 38.1303 58.4765 39.3623C57.4685 42.0473 59.8275 43.0183 61.1185 42.7603C58.9005 45.2173 56.0305 49.1993 53.8125 51.6563C55.6215 54.8523 57.7455 56.4063 61.2605 57.4723C62.9545 55.1323 64.4705 52.6643 65.7905 50.0943C66.7625 50.6343 69.3775 51.8073 70.4775 51.9703C71.5775 52.1333 72.8185 51.8273 73.4795 50.9333C73.7775 50.5303 73.9355 50.0433 74.0755 49.5623C74.5365 47.9843 75.0275 44.7293 75.0275 44.7293L78.5695 42.1103L75.0815 41.5033C75.0815 41.5033 75.8365 37.3153 76.2135 35.2213C76.2135 35.2213 62.6275 33.7163 62.5545 34.0213Z" fill="#F6A472"/>
<path d="M62.8623 59.4296C65.7163 53.1516 61.5823 48.2556 56.7743 46.6836C55.8173 47.6766 53.6903 48.8126 52.8423 49.9006C52.7473 50.0226 52.6473 50.1666 52.6773 50.3176C52.7053 50.4616 52.8403 50.5566 52.9643 50.6356C56.7363 53.0406 59.3163 56.9056 63.2423 59.0496L62.8623 59.4296Z" fill="#5B341A"/>
<path d="M76.0499 79.7788C75.6059 79.7898 75.5409 80.4808 75.8769 80.7698C76.1409 80.9878 84.9189 80.8578 88.4529 80.6048L91.6019 80.0137L88.4299 79.5938L76.0499 79.7788Z" fill="black"/>
<path d="M69.8441 126.261C67.8041 131.491 65.1541 136.483 61.9641 141.102C61.8001 141.339 61.6281 141.595 61.6251 141.884C61.6221 142.114 61.7291 142.33 61.8331 142.536C63.3961 145.627 65.2371 148.976 68.4821 150.185C68.6311 150.24 68.7941 150.291 68.9461 150.244C69.2171 150.16 69.3061 149.826 69.3381 149.545C69.4331 148.701 69.4071 147.844 69.2611 147.008C69.1501 146.371 68.9681 145.729 69.0591 145.089C69.1361 144.547 69.4021 144.053 69.6661 143.573C72.5691 138.282 75.6321 133.079 78.8501 127.973C76.8781 126.978 74.9061 125.983 72.9341 124.988L69.8441 126.261Z" fill="#D3885E"/>
<path d="M55.5727 144.405C55.2277 147.285 59.9237 150.003 61.7337 152.27C63.0607 153.931 64.4117 155.615 66.1467 156.842C69.0487 158.894 72.9437 159.465 76.3117 158.331C76.5797 158.241 76.8597 158.129 77.0247 157.9C77.4997 157.241 76.6847 156.429 75.9777 156.029C74.7057 155.307 73.4057 154.56 72.4647 153.44C71.4457 152.228 70.8877 150.626 69.6497 149.639C68.8527 149.004 67.8447 148.686 67.0247 148.081C65.2937 146.803 64.7107 144.53 63.7347 142.612C63.3047 141.767 62.6997 140.906 61.7837 140.66C60.4637 140.305 55.7327 143.069 55.5727 144.405Z" fill="black"/>
<path d="M84.5348 117.853C83.9168 116.055 82.1038 114.999 80.4298 114.098C76.6358 112.058 72.8408 110.018 69.0468 107.979C68.2538 107.553 67.4128 107.114 66.5128 107.146C65.6028 107.178 64.7868 107.685 64.0198 108.176C62.4608 109.174 60.9028 110.172 59.3438 111.17C62.8547 113.252 66.3658 115.334 69.8758 117.416C69.0868 120.584 66.3168 125.442 65.9038 128.681C65.8608 129.02 77.9518 134.854 79.6018 134.959L84.5348 117.853Z" fill="#721E1C"/>
<path d="M130.055 123.195C130.164 126.473 129.946 130.481 130.055 133.76C130.062 133.985 127.487 134.251 126.62 133.574C126.555 130.773 126.684 127.973 126.62 125.172C126.62 125.172 128.486 123.698 130.055 123.195Z" fill="#5B341A"/>
<path d="M126.024 131.099C127.77 131.406 129.102 131.341 130.822 130.907L131.034 138.16L153.868 131.772C154.888 131.487 155.981 131.82 156.668 132.627L156.76 132.736C157.502 133.607 157.138 134.951 156.058 135.328L138.383 141.504L162.593 148.437C163.438 148.679 164.114 149.315 164.407 150.145C164.832 151.348 163.77 152.55 162.524 152.276L129.264 144.983L116.824 163.475C116.559 163.868 115.946 163.681 115.946 163.207C115.946 160.384 116.672 157.609 118.055 155.148L124.105 144.383L89.5186 146.853C88.3776 146.935 87.5106 145.844 87.8466 144.751L88.0576 144.066C88.3786 143.022 89.2946 142.272 90.3816 142.162L124.225 138.744L114.866 130.825C115.86 129.699 117.578 129.593 118.703 130.588L126.025 137.065V131.099H126.024Z" fill="#C23F37"/>
<path d="M87.5973 124.201C83.8533 122.482 80.8864 119.414 79.3234 115.602C79.3124 115.575 79.3013 115.548 79.2903 115.52C77.5383 111.226 76.2584 106.74 75.4794 102.168C74.7384 97.8141 74.4843 93.1811 76.2453 89.1311C76.7993 87.8561 77.5664 86.6421 78.6544 85.7761C81.7504 83.3111 86.2043 84.3281 90.1613 84.4141C92.9063 84.4731 95.6603 84.0071 98.2363 83.0591C99.8943 82.4491 101.178 81.1091 101.698 79.4211L114.297 38.5321C114.297 38.5321 114.897 36.3721 117.777 37.4521C120.016 38.2921 144.878 38.4781 155.836 38.5201C158.077 38.5281 160.318 38.0481 162.269 36.9461C162.895 36.5931 163.792 36.4321 165.052 36.8521C168.292 37.9321 174.171 84.2471 174.171 84.2471C174.171 84.2471 176.571 94.8061 174.531 103.205C172.491 111.604 168.652 122.523 161.692 126.723C157.273 129.389 125.336 127.803 125.336 127.803L94.3884 126.059C92.3214 125.943 90.2943 125.439 88.4123 124.575L87.5973 124.201Z" fill="#6DA8C6"/>
<path d="M130.335 48.4062C129.58 49.0182 128.95 49.8642 128.867 50.8322C128.812 51.4742 128.999 52.1192 128.942 52.7612C128.899 53.2402 128.709 53.7162 128.36 54.0462C128.011 54.3772 127.493 54.5422 127.031 54.4122C127.763 55.0242 129.02 54.8253 129.527 54.0173C129.782 53.6113 129.851 53.1202 129.979 52.6582C130.259 51.6462 130.836 50.7452 131.404 49.8622L130.335 48.4062Z" fill="black"/>
<path d="M132.406 46.5312C133.599 45.9162 134.826 45.3321 136.141 45.0641C137.456 44.7961 138.881 44.8691 140.058 45.5141C140.657 45.8421 141.178 46.3091 141.804 46.5821C143.244 47.2101 145.092 46.7541 146.319 47.7351C147.355 48.5631 147.499 50.0652 147.474 51.3912C147.425 54.0172 147.037 56.6371 146.323 59.1651C146.175 59.6921 146.009 60.2212 145.714 60.6832C145.206 61.4802 144.371 61.9951 143.649 62.6061C143.151 63.0271 142.675 63.5522 142.596 64.1992C142.517 64.8462 143.029 65.5851 143.677 65.5101C142.931 65.8401 142.139 66.1522 141.325 66.0902C140.511 66.0282 139.677 65.4792 139.558 64.6712C139.528 64.4652 139.543 64.2501 139.471 64.0551C139.281 63.5461 138.633 63.4292 138.101 63.3212C136.707 63.0392 135.414 62.2802 134.487 61.2002C134.219 60.8882 133.986 60.3982 134.269 60.1002L132.406 46.5312Z" fill="black"/>
<path d="M166.241 85.1094C164.454 85.1144 162.668 85.3484 160.94 85.8044C160.428 85.9394 159.906 86.1024 159.503 86.4464C158.979 86.8944 158.812 87.6114 158.513 88.2324C155.893 93.6724 155.971 95.7314 155.869 99.6544C155.862 99.9284 155.866 100.222 156.021 100.449C156.131 100.611 156.305 100.717 156.479 100.809C159.017 102.146 162.338 101.082 164.235 98.9304C166.131 96.7784 166.825 93.8044 166.935 90.9374L166.241 85.1094Z" fill="#6DA8C6"/>
<path d="M84.6054 85.4888C87.2714 84.6978 89.7214 87.0528 90.7484 89.2918C92.0444 92.1208 92.0634 95.3378 91.7844 98.3788C91.6384 99.9648 91.4074 101.541 91.1884 103.118C90.9464 104.863 90.7044 106.607 90.4624 108.352C90.0004 111.681 89.3794 115.124 90.0924 118.463C90.6964 121.291 92.4294 124.022 95.1944 125.124C95.5764 125.276 95.7424 124.658 95.3644 124.507C92.8904 123.521 91.3524 121.025 90.7614 118.524C89.9704 115.177 90.6444 111.656 91.1084 108.312C91.3504 106.567 91.5924 104.823 91.8344 103.078C92.0554 101.483 92.2894 99.8878 92.4324 98.2838C92.7084 95.2048 92.6344 92.0138 91.3764 89.1398C90.2504 86.5658 87.4504 83.9778 84.4354 84.8718C84.0414 84.9888 84.2094 85.6068 84.6054 85.4888Z" fill="#396B7F"/>
<path d="M95.4701 98.1551C97.0181 97.8181 98.5671 97.4811 100.116 97.1441C101.531 96.8361 102.981 96.5901 104.365 96.1581C105.596 95.7731 106.709 95.1531 107.571 94.1801C108.374 93.2741 108.938 92.1931 109.403 91.0831C110.51 88.4431 111.322 85.6531 112.051 82.8881C112.807 80.0231 113.419 77.1221 113.93 74.2041C114.955 68.3501 115.574 62.4331 116.125 56.5191C116.399 53.5741 116.638 50.6241 116.938 47.6821C117.111 45.9871 117.586 44.2201 118.276 42.6651C118.561 42.0221 118.919 41.2321 119.526 40.8271C119.842 40.6161 120.281 40.5751 120.648 40.5191C121.84 40.3381 123.069 40.2941 124.277 40.2511C128.182 40.1151 132.095 40.1891 136 40.2751C140.587 40.3771 145.172 40.5361 149.756 40.7091C151.841 40.7871 153.929 40.8461 156.014 40.9501C158.358 41.0681 160.891 41.6501 162.681 43.2601C164.694 45.0701 165 47.8051 165.18 50.3541C165.402 53.4881 165.575 56.6251 165.704 59.7641C165.963 66.0891 166.036 72.4211 165.921 78.7501C165.893 80.2971 165.853 81.8441 165.804 83.3901C165.791 83.8021 166.43 83.8011 166.444 83.3901C166.651 76.9931 166.669 70.5901 166.495 64.1921C166.408 61.0051 166.274 57.8191 166.093 54.6361C166.004 53.0751 165.909 51.5151 165.791 49.9561C165.692 48.6541 165.556 47.3361 165.167 46.0841C164.799 44.8981 164.187 43.8121 163.286 42.9501C162.434 42.1361 161.397 41.5511 160.299 41.1371C158.146 40.3261 155.866 40.3041 153.599 40.2161C149.073 40.0411 144.547 39.8701 140.019 39.7391C135.717 39.6151 131.412 39.5111 127.108 39.5521C125.541 39.5671 123.971 39.5971 122.407 39.7041C121.475 39.7671 120.408 39.7811 119.522 40.1141C118.851 40.3661 118.402 41.0351 118.071 41.6361C117.616 42.4621 117.292 43.3641 117.022 44.2651C116.765 45.1191 116.556 45.9901 116.409 46.8701C116.22 48.0071 116.158 49.1681 116.052 50.3151C115.5 56.3131 115.001 62.3191 114.197 68.2901C113.396 74.2301 112.289 80.1451 110.535 85.8831C110.108 87.2801 109.649 88.6701 109.134 90.0381C108.685 91.2311 108.158 92.4331 107.361 93.4391C106.522 94.4981 105.42 95.1641 104.137 95.5591C102.726 95.9931 101.25 96.2441 99.8081 96.5571C98.3051 96.8841 96.8021 97.2111 95.2991 97.5381C94.8981 97.6261 95.0681 98.2431 95.4701 98.1551Z" fill="#396B7F"/>
<path d="M93.4702 107.041C97.1102 107.952 100.838 107.198 104.493 106.814C108.287 106.416 112.11 106.432 115.919 106.546C123.658 106.776 131.395 107.118 139.133 107.409C143.495 107.573 147.858 107.737 152.22 107.901C152.632 107.916 152.631 107.277 152.22 107.261C144.469 106.97 136.718 106.679 128.968 106.387C125.12 106.243 121.271 106.09 117.423 105.955C113.614 105.822 109.794 105.742 105.99 106.038C101.912 106.355 97.6992 107.439 93.6422 106.424C93.2402 106.324 93.0702 106.941 93.4702 107.041Z" fill="#396B7F"/>
<path d="M150.344 116.523C142.961 116.523 135.577 116.523 128.195 116.523C120.85 116.523 113.506 116.523 106.161 116.523C102.018 116.523 97.8735 116.523 93.7305 116.523C93.3195 116.523 93.3185 117.163 93.7305 117.163C101.114 117.163 108.497 117.163 115.879 117.163C123.224 117.163 130.568 117.163 137.913 117.163C142.056 117.163 146.201 117.163 150.344 117.163C150.756 117.163 150.756 116.523 150.344 116.523Z" fill="#396B7F"/>
<path d="M171.856 83.7384C169.893 83.7744 167.935 83.9464 165.995 84.2514C164.221 84.5304 162.363 84.8414 160.737 85.6414C157.577 87.1974 156.539 90.8964 155.788 94.0644C154.929 97.6894 154.585 101.412 154.315 105.12C154.042 108.872 153.85 112.638 153.268 116.359C153.005 118.041 152.715 119.765 152.155 121.378C151.719 122.635 151.038 123.98 149.838 124.661C149.556 124.821 149.256 124.929 148.94 125C148.539 125.091 148.709 125.707 149.11 125.617C152.117 124.938 152.972 121.276 153.496 118.701C154.24 115.038 154.523 111.302 154.782 107.58C155.041 103.854 155.273 100.113 155.946 96.4333C156.274 94.6373 156.698 92.8484 157.293 91.1204C157.812 89.6124 158.525 88.0994 159.754 87.0394C161.078 85.8974 162.862 85.4894 164.534 85.1584C166.471 84.7744 168.435 84.5304 170.407 84.4274C170.89 84.4024 171.373 84.3864 171.857 84.3774C172.267 84.3704 172.268 83.7304 171.856 83.7384Z" fill="#396B7F"/>
<path d="M112.13 93.89C117.52 93.89 122.911 93.89 128.301 93.89C133.673 93.89 139.046 93.89 144.418 93.89C147.45 93.89 150.482 93.89 153.514 93.89C153.926 93.89 153.926 93.25 153.514 93.25C148.124 93.25 142.733 93.25 137.343 93.25C131.971 93.25 126.598 93.25 121.225 93.25C118.193 93.25 115.161 93.25 112.129 93.25C111.718 93.25 111.717 93.89 112.13 93.89Z" fill="#396B7F"/>
<path d="M112.225 112.034C111.743 117.447 110.91 124.144 110.594 129.569C112.166 130.007 113.827 130.125 115.445 129.914C117.318 124.271 118.994 118.562 120.468 112.802C118.232 112.036 115.904 111.538 113.55 111.32L112.225 112.034Z" fill="#FED5B7"/>
<path d="M109.128 134.768L106 139.978C105.738 140.414 105.624 140.931 105.723 141.43C105.91 142.372 106.65 142.518 107.325 142.536C108.78 142.575 110.244 142.134 111.436 141.297C112.783 140.351 113.787 138.923 115.274 138.217C116.02 137.863 116.855 137.71 117.572 137.3C118.289 136.89 118.894 136.089 118.697 135.287C118.583 134.823 118.23 134.464 117.932 134.09C117.111 133.06 116.642 131.755 116.618 130.438C116.607 129.836 116.685 129.218 116.377 128.662C116.234 128.404 116 128.197 115.711 128.135C114.849 127.949 114.398 129.037 113.605 129.227C112.994 129.373 112.412 128.95 111.829 128.715C111.246 128.48 110.357 128.604 110.29 129.229L110.108 131.678C110.028 132.771 109.692 133.829 109.128 134.768Z" fill="#F59F18"/>
<path d="M130.773 120.879C130.868 124.734 130.825 128.592 130.641 132.444C132.359 133.376 134.297 134.338 136.185 133.83C136.843 128.884 137.534 123.942 138.257 119.004C136.795 118.981 135.334 118.965 133.872 118.957C132.888 118.951 131.785 118.997 131.106 119.708L130.773 120.879Z" fill="#FED5B7"/>
<path d="M129.386 133.934C129.638 132.58 130.948 131.637 132.294 131.931C132.634 132.005 132.956 132.15 133.231 132.371C133.744 132.784 134.081 133.391 134.717 133.669C134.983 133.785 135.288 133.81 135.553 133.693C136.367 133.336 136.1 132.133 136.67 131.516C137.38 131.91 137.428 132.894 137.386 133.705C137.327 134.842 137.268 135.979 137.209 137.116C137.188 137.521 137.164 137.937 136.995 138.305C136.746 138.846 136.225 139.201 135.836 139.652C135.024 140.595 134.814 141.937 134.032 142.906C133.147 144.003 131.677 144.441 130.277 144.596C128.878 144.751 127.398 144.67 126.229 143.764C125.913 143.519 125.644 143.213 125.455 142.861C124.594 141.263 125.568 139.78 126.658 138.694C127.506 137.849 128.49 137.083 129.001 136L129.386 133.934Z" fill="#F59F18"/>
<path d="M75.1953 128.879C76.9453 133.644 77.6423 138.792 77.2213 143.85C77.1093 145.192 76.9243 146.577 77.3293 147.861C77.6533 148.891 78.3313 149.768 79.0303 150.591C81.1103 153.043 83.5823 155.294 86.6123 156.367C88.0203 156.865 89.8253 156.993 90.7813 155.846C91.4413 155.054 91.4553 153.882 91.1163 152.909C90.7773 151.936 90.1393 151.101 89.5693 150.242C84.7963 143.056 84.5783 133.877 84.5203 125.25C82.8523 125.739 81.1103 125.971 79.3733 125.936L75.1953 128.879Z" fill="#F6A472"/>
<path d="M72.9882 149.197C73.0942 149.838 73.4352 150.419 73.9492 150.818C76.6712 152.933 79.4872 154.927 82.3842 156.795C86.2402 159.28 90.5982 161.621 95.1582 161.119C95.7902 161.049 96.4492 160.911 96.8852 160.413C97.0872 160.182 97.2082 159.882 97.1862 159.576C97.1402 158.952 96.6122 158.719 96.1652 158.448C93.9542 157.108 93.1762 154.258 91.2722 152.504C91.1772 152.417 91.0712 152.34 90.9532 152.288C90.1142 151.918 89.5862 152.832 88.9172 153.261C87.6522 154.072 86.0322 153.067 84.9082 152.07C82.3612 149.812 79.9832 147.363 77.8002 144.751C77.6052 144.517 77.3862 144.267 77.0862 144.214C76.7332 144.151 76.4022 144.382 76.1232 144.607C75.1992 145.356 74.3432 146.19 73.5712 147.094C73.0752 147.672 72.8632 148.444 72.9882 149.197Z" fill="black"/>
<path d="M23.1897 116.975C16.8137 130.611 10.8667 144.447 5.36071 158.457C5.11871 159.072 4.87471 159.737 5.03671 160.378C5.36071 161.661 7.18571 162.005 8.31771 161.321C9.44971 160.637 10.0357 159.342 10.5507 158.124C16.4907 144.079 21.8777 129.741 29.3547 116.451C29.4957 116.2 29.6417 115.904 29.5327 115.637C29.4427 115.419 29.2117 115.3 28.9967 115.206C27.4267 114.517 25.7217 114.136 24.0077 114.094L23.1897 116.975Z" fill="#F59F18"/>
<path d="M29.5234 116.712C34.7454 132.483 49.8454 164.049 50.5014 164.6C51.1574 165.151 52.1144 165.431 52.8874 165.062C53.7304 164.66 54.0984 163.609 53.9924 162.681C53.8864 161.753 39.6754 130.785 34.3434 115.59L29.5234 116.712Z" fill="#F59F18"/>
<path d="M39.7868 115.767C43.7978 127.335 50.1478 137.929 55.1968 149.083C55.5248 149.807 55.8528 150.561 55.8558 151.356C55.8588 152.151 55.4498 153.003 54.7008 153.27C53.6588 153.641 52.6088 152.771 51.8978 151.924C49.7198 149.328 37.7738 124.662 33.7578 115.18L39.7868 115.767Z" fill="#BC700C"/>
<path d="M8.32652 14.5401C8.42352 14.4431 8.52052 14.3461 8.61852 14.2491C8.64952 14.2201 8.67152 14.1861 8.68452 14.1461C8.70452 14.1081 8.71352 14.0671 8.71252 14.0231C8.71452 13.9791 8.70552 13.9381 8.68452 13.9001C8.67152 13.8601 8.64952 13.8261 8.61852 13.7971C8.59652 13.7801 8.57552 13.7641 8.55352 13.7471C8.50352 13.7181 8.44952 13.7041 8.39252 13.7031C8.36452 13.7071 8.33552 13.7111 8.30752 13.7141C8.25352 13.7291 8.20652 13.7571 8.16652 13.7961C8.06952 13.8931 7.97252 13.9901 7.87552 14.0871C7.84452 14.1161 7.82252 14.1501 7.80952 14.1901C7.78952 14.2281 7.78052 14.2691 7.78152 14.3131C7.77952 14.3571 7.78852 14.3981 7.80952 14.4361C7.82252 14.4761 7.84452 14.5101 7.87552 14.5391C7.89652 14.5561 7.91852 14.5721 7.94052 14.5891C7.99052 14.6181 8.04452 14.6321 8.10152 14.6331C8.12952 14.6291 8.15852 14.6251 8.18652 14.6221C8.23952 14.6071 8.28752 14.5801 8.32652 14.5401Z" fill="white"/>
<path d="M124.634 88.5415C121.947 90.0335 119.451 91.8695 117.227 93.9915C116.09 95.0755 115.014 96.2485 114.25 97.6215C113.392 99.1655 112.96 100.907 112.603 102.637C111.932 105.882 110.728 113.739 110.516 117.046C113.566 118.632 116.977 119.517 120.413 119.614C121.138 116.974 122.623 109.768 123.348 107.128C123.559 106.361 123.776 105.578 124.22 104.918C124.547 104.432 124.984 104.031 125.422 103.641C127.056 102.184 127.69 100.495 129.446 99.1905C129.439 100.808 129.645 102.587 129.177 104.135C128.48 106.44 128.653 108.905 128.832 111.306C129.035 114.036 129.239 116.766 129.442 119.497C129.476 119.953 129.524 120.443 129.824 120.787C130.061 121.058 130.415 121.191 130.759 121.299C134.007 122.318 137.66 121.973 140.66 120.362C140.873 120.248 141.092 120.119 141.221 119.914C141.376 119.667 141.374 119.356 141.366 119.064C141.241 114.443 141.117 109.821 140.992 105.2C140.982 104.838 140.974 104.465 141.109 104.129C141.275 103.715 141.66 103.444 141.998 103.152C145.142 100.427 142.165 92.9855 140.386 90.1545C135.704 90.7025 132.021 87.5395 127.327 87.1055L124.634 88.5415Z" fill="#5B341A"/>
<path d="M131.783 65.1741C128.415 64.4311 124.882 66.1171 122.51 68.6211C120.138 71.1251 118.702 74.3491 117.312 77.5051C119.678 78.1671 122.045 78.8291 124.411 79.4901C124.605 82.2651 124.878 85.7651 125.072 88.5391C125.098 88.9061 134.883 92.8651 139.432 92.3271C139.852 92.2771 141.15 91.8661 141.242 91.5831C142.671 87.2091 143.694 82.3001 144.807 77.8351C145.765 77.9751 148.913 78.8301 148.947 78.5511C149.301 75.6121 148.186 72.5301 146.665 69.9901C145.185 67.5191 142.824 66.7801 140.005 66.1851C137.504 65.6571 135.271 63.8751 133.229 65.4121L131.783 65.1741Z" fill="#F59F18"/>
<path d="M118.701 76.6666C118.34 78.2976 117.979 79.9276 117.619 81.5586C116.698 80.3996 115.777 79.2416 114.855 78.0826C114.595 77.7556 114.326 77.4106 114.242 77.0006C114.173 76.6636 114.236 76.3146 114.238 75.9706C114.248 74.1496 112.58 72.6356 112.601 70.8136C111.972 70.5486 111.463 71.4656 111.584 72.1366C111.705 72.8086 112.099 73.4846 111.879 74.1306L108.863 69.8946C108.606 69.5156 108.015 69.7426 108.075 70.1966C108.205 71.1776 110.379 74.6346 110.928 75.4586C110.461 74.2156 107.827 70.3546 106.851 69.7896C106.63 69.6616 106.367 69.8656 106.428 70.1136C106.767 71.4856 108.204 73.7016 108.961 74.6986C108.961 74.6986 105.827 71.3926 105.664 71.4156C104.332 71.6056 106.399 73.6826 107.102 74.7566C106.461 74.2826 106.231 73.7676 105.463 73.5546C105.106 73.4556 104.791 73.8146 104.947 74.1506C105.894 76.1976 107.697 78.9896 109.784 79.8486C110.15 79.9996 110.53 80.1276 110.853 80.3556C111.178 80.5846 111.429 80.9006 111.665 81.2196C113.025 83.0556 114.077 85.1346 115.678 86.7636C116.305 87.4016 117.049 87.9816 117.928 88.1456C119.112 88.3666 120.334 87.7746 121.16 86.8966C121.986 86.0196 122.484 84.8896 122.932 83.7716C123.879 81.4106 124.675 78.9896 125.313 76.5276L118.701 76.6666Z" fill="#FED5B7"/>
<path d="M130.078 49.7874C129.297 52.3814 128.515 54.9764 127.734 57.5704C127.293 59.0354 126.875 60.7014 127.693 62.0144C128.596 63.4634 131.226 63.9364 132.969 64.1464C133.139 64.7264 132.308 67.9154 132.255 67.8434C132.094 67.6264 133.439 70.4654 139.607 68.8524C140.18 68.7024 140.412 63.4234 140.751 61.5944C141.089 62.5584 142.579 62.5204 143.475 61.9824C144.525 61.3524 145.322 60.1244 144.951 58.9864C144.58 57.8484 142.402 57.2454 141.809 58.2894C142.195 55.5074 142.56 54.1764 142.501 51.3694C142.496 51.1094 142.484 50.8364 142.345 50.6134C142.178 50.3454 141.862 50.2034 141.561 50.0844C137.916 48.6474 133.744 48.4884 130.003 49.6434L130.078 49.7874Z" fill="#FED5B7"/>
<path d="M117.842 75.2188C117.768 76.6487 117.238 77.3447 117.164 78.7747C119.868 78.9357 122.572 79.0978 125.277 79.2588C125.366 79.2638 125.463 79.2668 125.532 79.2108C125.608 79.1488 125.62 79.0397 125.626 78.9427C125.693 77.9177 125.365 76.1838 125.262 76.1708C122.702 75.8278 117.842 75.2188 117.842 75.2188Z" fill="#B56D0F"/>
<path d="M141.88 78.4117C141.447 79.9617 141.06 81.5247 140.719 83.0977C138.416 82.1277 136.114 81.1567 133.811 80.1867C133.432 80.0267 133.039 79.8567 132.771 79.5447C132.493 79.2197 132.385 78.7807 132.133 78.4347C131.384 77.4067 129.707 77.5657 128.826 76.6487C128.466 76.2737 128.268 75.7427 127.728 75.5587C127.482 75.4747 127.197 75.5407 127.05 75.7557C126.862 76.0307 127.017 76.3357 127.183 76.5807C127.697 77.3367 128.388 77.9707 129.186 78.4177C127.176 77.4267 124.911 76.9647 122.673 77.0787C122.309 77.0977 122.164 77.5647 122.457 77.7817C123.553 78.5927 126.338 79.1307 126.275 79.0497C126.165 79.1307 122.851 78.2307 121.164 78.6497C120.87 78.7227 120.779 79.0917 120.991 79.3077C121.799 80.1287 125.991 80.5147 125.991 80.5147C125.991 80.5147 122.581 79.8977 121.762 79.8527C121.611 79.8447 121.458 79.9037 121.366 80.0227C121.131 80.3267 121.46 80.6557 121.753 80.8277C123.086 81.6077 124.629 82.0247 126.174 82.0197C125.142 82.3057 124.174 82.8187 123.357 83.5117C123.28 83.5767 123.301 83.7037 123.395 83.7387C126.047 84.7337 129.172 82.5587 131.891 83.4837C133.133 83.9067 134.069 84.9107 135.045 85.7877C136.348 86.9597 137.807 87.9577 139.371 88.7477C140.559 89.3477 142.004 89.8217 143.18 89.1997C143.966 88.7837 144.445 87.9667 144.851 87.1757C146.044 84.8487 146.96 82.3787 147.576 79.8367C147.888 78.5497 147.325 78.2477 146.137 77.6607L146.31 78.3527C145.953 78.1757 145.324 77.3307 144.927 77.3157H144.235C142.916 77.2617 142.235 77.1417 141.88 78.4117Z" fill="#FED5B7"/>
<path d="M141.623 76.7422C144.183 77.0852 149.051 77.5602 149.042 77.6932C148.975 78.7182 148.765 80.2172 148.677 80.2112C145.973 80.0502 143.947 80.3272 141.242 80.1662C141.317 78.7362 141.623 76.7422 141.623 76.7422Z" fill="#B56D0F"/>
<path d="M142.1 60.4379C142.238 60.3149 142.379 60.1959 142.524 60.0799C142.563 60.0479 142.603 60.0169 142.643 59.9859C142.676 59.9609 142.694 59.9469 142.711 59.9339C142.787 59.8769 142.864 59.8199 142.941 59.7649C143.246 59.5459 143.563 59.3439 143.889 59.1579C144.034 59.0749 144.097 58.8649 144.004 58.7199C143.91 58.5729 143.722 58.5159 143.566 58.6049C142.881 58.9969 142.238 59.4619 141.648 59.9859C141.522 60.0969 141.526 60.3259 141.648 60.4379C141.782 60.5609 141.966 60.5569 142.1 60.4379Z" fill="#87542D"/>
<path opacity="0.43" d="M132.971 64.1445L137.531 64.8505L132.797 65.7675L132.971 64.1445Z" fill="#87542D"/>
<path d="M142.734 59.8975C142.801 59.9635 142.729 59.8765 142.746 59.9045C142.757 59.9245 142.769 59.9435 142.781 59.9635C142.8 59.9965 142.756 59.8905 142.772 59.9425C142.788 59.9935 142.803 60.0765 142.795 60.0175C142.787 59.9585 142.796 60.0475 142.796 60.0625C142.796 60.0865 142.795 60.1095 142.793 60.1335C142.79 60.1825 142.799 60.1035 142.798 60.1015C142.783 60.1715 142.776 60.1965 142.767 60.2225C142.759 60.2405 142.782 60.1975 142.762 60.2355C142.748 60.2625 142.734 60.2895 142.719 60.3165C142.703 60.3425 142.687 60.3685 142.669 60.3935C142.615 60.4685 142.657 60.4105 142.657 60.4105C142.669 60.4265 142.428 60.6605 142.405 60.6835C142.287 60.8025 142.277 61.0185 142.405 61.1355C142.532 61.2525 142.732 61.2625 142.857 61.1355C143.08 60.9105 143.302 60.6685 143.393 60.3575C143.485 60.0445 143.425 59.6765 143.185 59.4435C143.065 59.3275 142.851 59.3145 142.733 59.4435C142.619 59.5715 142.606 59.7735 142.734 59.8975Z" fill="#87542D"/>
<path d="M133.004 58.7276C132.739 58.4136 132.389 58.1846 132.051 57.9566C131.739 57.7456 131.409 57.5296 131.206 57.2036C131.142 57.3606 131.078 57.5166 131.015 57.6736C131.763 57.4616 132.538 57.2376 133.17 56.7666C133.763 56.3246 134.197 55.7256 134.444 55.0296C134.582 54.6406 133.965 54.4736 133.827 54.8596C133.625 55.4286 133.243 55.9436 132.745 56.2876C132.175 56.6816 131.503 56.8706 130.845 57.0576C130.651 57.1126 130.544 57.3496 130.654 57.5276C131.116 58.2716 132.002 58.5296 132.551 59.1806C132.818 59.4956 133.268 59.0406 133.004 58.7276Z" fill="#87542D"/>
<path d="M136.861 57.2432C137.229 57.2432 137.527 56.86 137.527 56.3872C137.527 55.9145 137.229 55.5312 136.861 55.5312C136.493 55.5312 136.195 55.9145 136.195 56.3872C136.195 56.86 136.493 57.2432 136.861 57.2432Z" fill="black"/>
<path d="M131.348 55.9107C131.348 56.3837 131.05 56.7667 130.682 56.7667C130.314 56.7667 130.016 56.3837 130.016 55.9107C130.016 55.4377 130.314 55.0547 130.682 55.0547C131.05 55.0547 131.348 55.4377 131.348 55.9107Z" fill="black"/>
<path d="M72.629 42.6115C73.0454 42.6115 73.383 42.1992 73.383 41.6905C73.383 41.1819 73.0454 40.7695 72.629 40.7695C72.2126 40.7695 71.875 41.1819 71.875 41.6905C71.875 42.1992 72.2126 42.6115 72.629 42.6115Z" fill="black"/>
<path d="M130.443 48.454C130.549 48.373 130.304 48.306 130.203 48.394C129.573 48.95 129.132 49.716 128.967 50.539C128.917 50.791 128.897 51.072 129.038 51.286C129.296 51.677 129.885 51.606 130.33 51.46C131.437 51.097 132.484 50.554 133.42 49.859C133.171 50.158 132.915 50.467 132.801 50.838C132.686 51.21 132.748 51.664 133.051 51.908C133.312 52.118 133.679 52.125 134.013 52.093C135.049 51.992 136.056 51.598 136.885 50.968C136.429 51.17 135.909 51.454 135.848 51.949C135.798 52.357 136.116 52.743 136.5 52.89C136.884 53.037 137.314 52.994 137.716 52.909C138.323 52.78 138.91 52.557 139.45 52.251C138.941 52.469 139.009 53.288 139.446 53.627C139.884 53.966 140.488 53.961 141.041 53.939C140.616 54.31 140.417 54.923 140.543 55.473C140.669 56.023 141.115 56.488 141.66 56.637C140.881 57.431 140.473 58.575 140.573 59.683C141.585 58.271 143.331 56.769 145.177 59.108C145.809 58.05 145.671 56.712 145.408 55.507C145.145 54.303 144.774 53.071 145.004 51.86C145.102 51.343 145.308 50.852 145.407 50.335C145.506 49.818 145.482 49.242 145.164 48.823C144.942 48.529 144.603 48.348 144.262 48.208C143.023 47.699 141.653 47.622 140.357 47.284C139.292 47.007 138.275 46.553 137.197 46.329C135.448 45.965 133.637 46.222 131.869 46.481C131.32 46.561 130.745 46.652 130.302 46.987C129.859 47.322 129.612 47.985 129.917 48.448L130.443 48.454Z" fill="black"/>
<path d="M133.115 60.2925C133.277 59.9535 133.806 59.8765 134.064 60.1505C134.322 60.4245 134.224 60.9385 133.888 61.1065C133.551 61.2745 133.088 61.0525 132.999 60.6865C132.97 60.5705 132.975 60.4485 132.981 60.3285L133.115 60.2925Z" fill="white"/>
<path d="M133.391 60.4533C133.401 60.4343 133.411 60.4153 133.422 60.3973C133.439 60.3723 133.465 60.3553 133.402 60.4213C133.433 60.3863 133.448 60.3723 133.463 60.3583C133.486 60.3383 133.515 60.3313 133.438 60.3773C133.482 60.3483 133.5 60.3373 133.519 60.3283C133.541 60.3213 133.464 60.3453 133.513 60.3303C133.557 60.3173 133.599 60.3053 133.644 60.2983C133.616 60.3023 133.587 60.3063 133.559 60.3093C133.619 60.3013 133.679 60.3013 133.739 60.3083C133.711 60.3043 133.682 60.3003 133.654 60.2973C133.684 60.3013 133.713 60.3073 133.741 60.3153C133.828 60.3423 133.701 60.2903 133.748 60.3143C133.773 60.3273 133.796 60.3403 133.819 60.3553C133.874 60.3883 133.761 60.3043 133.8 60.3403C133.891 60.4343 133.809 60.3293 133.836 60.3713C133.845 60.3863 133.867 60.4413 133.88 60.4493C133.87 60.4433 133.847 60.3623 133.867 60.4203C133.887 60.4863 133.892 60.5153 133.896 60.5453C133.892 60.5173 133.888 60.4883 133.885 60.4603C133.892 60.5163 133.891 60.5723 133.885 60.6283C133.889 60.6003 133.893 60.5713 133.896 60.5433C133.892 60.5733 133.886 60.6033 133.878 60.6333C133.869 60.6663 133.823 60.7613 133.876 60.6553C133.862 60.6823 133.85 60.7093 133.834 60.7353C133.783 60.8123 133.871 60.7013 133.827 60.7483C133.808 60.7693 133.789 60.7883 133.768 60.8073C133.731 60.8423 133.844 60.7543 133.781 60.7963C133.768 60.8123 133.781 60.8063 133.751 60.8183C133.695 60.8363 133.665 60.8433 133.633 60.8483C133.661 60.8443 133.69 60.8403 133.718 60.8373C133.664 60.8443 133.611 60.8443 133.557 60.8373C133.585 60.8413 133.614 60.8453 133.642 60.8483C133.611 60.8443 133.579 60.8383 133.549 60.8293C133.531 60.8243 133.514 60.8193 133.497 60.8133C133.432 60.7903 133.523 60.8213 133.523 60.8253C133.523 60.8253 133.447 60.7853 133.439 60.7803C133.423 60.7703 133.409 60.7593 133.394 60.7493C133.479 60.8023 133.433 60.7803 133.411 60.7603C133.387 60.7393 133.367 60.7143 133.345 60.6923C133.328 60.6753 133.398 60.7663 133.358 60.7083C133.286 60.5783 133.338 60.7103 133.32 60.6463C133.308 60.6053 133.298 60.5643 133.292 60.5223C133.296 60.5503 133.3 60.5793 133.303 60.6073C133.292 60.5143 133.295 60.4213 133.299 60.3273C133.307 60.1603 133.146 60.0003 132.979 60.0073C132.799 60.0153 132.668 60.1483 132.659 60.3273C132.649 60.5473 132.663 60.7613 132.763 60.9613C132.84 61.1153 132.975 61.2463 133.121 61.3353C133.417 61.5163 133.835 61.5433 134.125 61.3333C134.436 61.1093 134.568 60.7423 134.512 60.3683C134.462 60.0323 134.184 59.7443 133.848 59.6843C133.463 59.6163 133.02 59.7593 132.837 60.1303C132.799 60.2083 132.781 60.2913 132.805 60.3763C132.825 60.4503 132.883 60.5313 132.952 60.5673C133.098 60.6443 133.312 60.6133 133.391 60.4533Z" fill="#87542D"/>
<path d="M136.554 53.8574C136.437 54.0224 136.479 54.2614 136.601 54.4224C136.723 54.5834 136.909 54.6824 137.092 54.7684C137.563 54.9884 138.062 55.1504 138.572 55.2504C138.629 55.2614 138.688 55.2714 138.743 55.2564C138.939 55.2014 138.919 54.9114 138.821 54.7334C138.621 54.3684 138.286 54.0954 137.936 53.8704C137.744 53.7464 137.538 53.6324 137.312 53.5964C137.086 53.5604 136.834 53.6154 136.683 53.7874L136.554 53.8574Z" fill="black"/>
<path d="M132.332 52.623C132.449 52.788 132.407 53.027 132.285 53.188C132.163 53.349 131.977 53.448 131.794 53.534C131.323 53.754 130.824 53.916 130.314 54.016C130.257 54.027 130.198 54.037 130.143 54.022C129.947 53.967 129.967 53.677 130.065 53.499C130.265 53.134 130.6 52.861 130.95 52.636C131.142 52.512 131.348 52.398 131.573 52.362C131.799 52.326 132.051 52.382 132.202 52.553L132.332 52.623Z" fill="black"/>
<path d="M132.677 66.559C132.08 66.563 131.564 67.089 131.466 67.678C131.368 68.267 131.63 68.876 132.048 69.304C132.465 69.731 133.021 69.998 133.587 70.188C135.044 70.675 136.655 70.69 138.121 70.231C138.729 70.041 139.327 69.76 139.764 69.296C140.201 68.832 140.258 68.037 140.096 67.421C139.881 67.909 139.692 68.443 139.219 68.69C138.774 68.922 138.268 69.008 137.768 69.054C136.154 69.202 134.506 68.963 133 68.364C132.818 68.291 132.622 68.198 132.544 68.018C132.491 67.895 132.506 67.755 132.521 67.622C132.562 67.262 132.603 66.903 132.645 66.543L132.677 66.559Z" fill="#B56D0F"/>
<path d="M125.531 76.1293C125.558 74.9923 125.87 73.8983 126.198 72.8173C126.532 71.7183 126.871 70.6203 127.209 69.5223C127.33 69.1283 126.713 68.9593 126.592 69.3523C126.244 70.4823 125.894 71.6123 125.551 72.7453C125.217 73.8493 124.918 74.9703 124.891 76.1293C124.882 76.5413 125.521 76.5413 125.531 76.1293Z" fill="#B56D0F"/>
<path d="M125.749 69.6965C125.578 70.2345 125.594 70.8405 125.805 71.3655C125.837 71.4455 125.875 71.5115 125.952 71.5565C126.021 71.5965 126.122 71.6135 126.199 71.5885C126.349 71.5395 126.489 71.3615 126.422 71.1955C126.376 71.0815 126.339 70.9635 126.313 70.8435C126.305 70.8095 126.299 70.7745 126.293 70.7395C126.29 70.7215 126.273 70.6435 126.289 70.7205C126.276 70.6625 126.277 70.5955 126.275 70.5365C126.273 70.4745 126.273 70.4135 126.276 70.3515C126.277 70.3255 126.279 70.2985 126.281 70.2725C126.282 70.2575 126.29 70.1415 126.284 70.2265C126.292 70.1065 126.331 69.9815 126.367 69.8675C126.418 69.7075 126.308 69.5115 126.144 69.4745C125.968 69.4335 125.803 69.5255 125.749 69.6965Z" fill="#B56D0F"/>
<path d="M141.617 71.7301C141.708 73.7151 141.674 75.7031 141.517 77.6841C141.484 78.0941 142.124 78.0921 142.157 77.6841C142.314 75.7031 142.347 73.7151 142.257 71.7301C142.237 71.3201 141.598 71.3181 141.617 71.7301Z" fill="#B56D0F"/>
<path d="M142.546 71.756C142.313 72.298 142.08 72.839 141.847 73.381C141.812 73.463 141.79 73.537 141.815 73.627C141.836 73.701 141.893 73.782 141.962 73.818C142.1 73.891 142.329 73.867 142.4 73.703C142.633 73.161 142.866 72.62 143.099 72.078C143.134 71.996 143.156 71.922 143.131 71.831C143.111 71.757 143.053 71.677 142.984 71.64C142.846 71.568 142.617 71.592 142.546 71.756Z" fill="#B56D0F"/>
<path d="M132.18 77.0589C133.994 77.9209 135.784 78.8319 137.549 79.7909C137.911 79.9879 138.234 79.4359 137.872 79.2389C136.107 78.2799 134.317 77.3689 132.503 76.5069C132.133 76.3309 131.808 76.8819 132.18 77.0589Z" fill="#B56D0F"/>
<path d="M133.335 79.2184C134.223 79.7314 135.112 80.2434 136 80.7564C136.357 80.9624 136.68 80.4104 136.323 80.2044C135.435 79.6914 134.546 79.1794 133.658 78.6664C133.301 78.4604 132.978 79.0124 133.335 79.2184Z" fill="#B56D0F"/>
<path d="M126.018 88.6135C127.725 89.2945 129.461 89.9005 131.222 90.4245C132.101 90.6865 132.986 90.9275 133.871 91.1645C134.665 91.3765 135.468 91.5675 136.288 91.6425C137.211 91.7275 138.126 91.6235 138.973 91.2355C139.347 91.0645 139.022 90.5125 138.65 90.6835C137.192 91.3505 135.513 90.9415 134.04 90.5475C132.341 90.0935 130.651 89.6095 128.987 89.0375C128.045 88.7135 127.112 88.3655 126.187 87.9965C125.806 87.8445 125.64 88.4625 126.018 88.6135Z" fill="#B56D0F"/>
<path d="M124.991 78.3543C124.029 78.2063 122.987 78.0573 122.015 78.1853C121.628 78.2363 121.249 78.3533 120.946 78.6083C120.645 78.8613 120.409 79.3053 120.722 79.6503C120.949 79.9003 121.344 79.9503 121.656 80.0283C122.03 80.1223 122.405 80.2113 122.78 80.2983C123.542 80.4733 124.308 80.6443 125.081 80.7613C125.478 80.8213 125.661 80.2323 125.251 80.1443C124.665 80.0183 124.083 79.8763 123.499 79.7393C122.885 79.5953 122.253 79.4063 121.621 79.3673C121.261 79.3453 120.852 79.3973 120.551 79.6103C120.228 79.8393 120.183 80.2363 120.397 80.5593C120.817 81.1943 121.778 81.3183 122.451 81.5083C123.447 81.7903 124.447 82.0603 125.449 82.3203C125.424 82.1253 125.398 81.9303 125.373 81.7353C124.879 82.0133 124.385 82.2903 123.891 82.5683C123.535 82.7683 123.022 82.9763 122.903 83.4133C122.787 83.8403 123.098 84.1753 123.474 84.3133C123.944 84.4863 124.501 84.4483 124.984 84.3563C125.388 84.2793 125.217 83.6633 124.814 83.7393C124.48 83.8023 124.116 83.8183 123.784 83.7393C123.724 83.7243 123.521 83.6793 123.52 83.5973C123.519 83.5073 123.686 83.4223 123.749 83.3833C124.382 82.9943 125.048 82.6523 125.696 82.2873C125.934 82.1533 125.884 81.7713 125.62 81.7033C124.668 81.4563 123.72 81.2003 122.774 80.9343C122.361 80.8183 121.943 80.7113 121.535 80.5763C121.368 80.5213 121.193 80.4543 121.055 80.3413C120.994 80.2913 120.898 80.2073 120.92 80.1373C120.939 80.0753 121.129 80.0423 121.18 80.0313C121.556 79.9473 121.956 80.0463 122.325 80.1263C122.612 80.1883 122.897 80.2553 123.183 80.3223C123.815 80.4703 124.446 80.6253 125.081 80.7613C125.138 80.5553 125.194 80.3503 125.251 80.1443C124.032 79.9593 122.823 79.6663 121.629 79.3623C121.535 79.3383 121.326 79.3263 121.256 79.2593C121.208 79.2133 121.199 79.2433 121.287 79.1633C121.344 79.1113 121.39 79.0663 121.455 79.0243C121.712 78.8593 122.032 78.8113 122.331 78.7953C123.156 78.7513 124.006 78.8453 124.82 78.9713C125.224 79.0323 125.398 78.4163 124.991 78.3543Z" fill="#87542D"/>
<path d="M132.133 80.5689C131.926 80.9879 131.803 81.4299 131.759 81.8949C131.743 82.0619 131.917 82.2219 132.079 82.2149C132.266 82.2069 132.382 82.0739 132.399 81.8949C132.402 81.8669 132.404 81.8389 132.408 81.8119C132.415 81.7559 132.413 81.7669 132.407 81.8139C132.418 81.7979 132.417 81.7509 132.42 81.7309C132.423 81.7099 132.427 81.6899 132.431 81.6689C132.449 81.5729 132.472 81.4769 132.498 81.3829C132.525 81.2889 132.556 81.1959 132.591 81.1039C132.599 81.0839 132.606 81.0649 132.614 81.0449C132.627 81.0129 132.624 81.0189 132.606 81.0629C132.643 80.9799 132.664 80.9349 132.685 80.8909C132.759 80.7409 132.73 80.5379 132.57 80.4529C132.427 80.3779 132.213 80.4089 132.133 80.5689Z" fill="#87542D"/>
<path d="M140.691 83.4587C140.903 84.2417 141.219 84.9977 141.628 85.6987C141.835 86.0537 142.388 85.7327 142.18 85.3757C141.793 84.7127 141.508 84.0297 141.308 83.2887C141.263 83.1217 141.081 83.0197 140.915 83.0657C140.746 83.1117 140.645 83.2917 140.691 83.4587Z" fill="#87542D"/>
<path d="M112.121 70.6102C111.693 71.0652 111.435 71.6382 111.394 72.2632C111.371 72.6052 111.424 72.9552 111.503 73.2882C111.546 73.4682 111.599 73.6462 111.655 73.8222C111.7 73.9632 111.823 74.1912 111.783 74.3332C111.744 74.4692 111.605 74.5982 111.54 74.7272C111.476 74.8542 111.423 74.9892 111.385 75.1262C111.299 75.4332 111.278 75.7602 111.313 76.0762C111.386 76.7452 111.692 77.3522 112.066 77.9022C112.296 78.2402 112.851 77.9202 112.618 77.5792C112.294 77.1042 111.995 76.5742 111.944 75.9892C111.918 75.7012 111.947 75.4022 112.056 75.1322C112.156 74.8842 112.372 74.6962 112.424 74.4302C112.482 74.1342 112.328 73.8332 112.242 73.5572C112.147 73.2502 112.059 72.9342 112.037 72.6132C111.996 72.0342 112.175 71.4892 112.575 71.0652C112.855 70.7632 112.404 70.3102 112.121 70.6102Z" fill="#87542D"/>
<path d="M105.221 73.8887C106.521 74.8817 107.682 76.0497 108.684 77.3427C108.838 77.5407 109.159 77.4107 109.219 77.2017C109.269 77.0237 110.035 77.3957 110.125 77.4477C110.491 77.6567 110.794 77.9467 111.022 78.3007C111.244 78.6457 111.798 78.3247 111.574 77.9777C111.212 77.4157 110.701 76.9767 110.083 76.7187C109.602 76.5177 108.791 76.3637 108.602 77.0317C108.78 76.9847 108.958 76.9377 109.137 76.8907C108.098 75.5517 106.89 74.3657 105.544 73.3367C105.216 73.0867 104.897 73.6417 105.221 73.8887Z" fill="#87542D"/>
<path d="M106.035 70.9172C106.85 72.2032 107.746 73.4622 108.77 74.5912C109.047 74.8972 109.498 74.4432 109.222 74.1392C108.234 73.0502 107.374 71.8352 106.587 70.5952C106.368 70.2472 105.814 70.5682 106.035 70.9172Z" fill="#87542D"/>
<path d="M107.263 70.7127C108.113 71.7277 108.87 72.8167 109.72 73.8307C109.831 73.9637 110.058 73.9457 110.172 73.8307C110.303 73.6997 110.283 73.5117 110.172 73.3787C109.322 72.3637 108.565 71.2747 107.715 70.2607C107.604 70.1287 107.377 70.1457 107.263 70.2607C107.132 70.3917 107.152 70.5797 107.263 70.7127Z" fill="#87542D"/>
<path d="M108.6 75.3146C109.19 74.7816 109.767 74.3376 110.432 73.9026C110.572 73.8116 110.644 73.6156 110.547 73.4646C110.457 73.3246 110.259 73.2516 110.109 73.3496C109.417 73.8016 108.761 74.3086 108.147 74.8616C108.023 74.9736 108.024 75.2016 108.147 75.3136C108.28 75.4366 108.467 75.4346 108.6 75.3146Z" fill="#87542D"/>
<path d="M129.714 91.1222C129.374 93.1832 128.894 95.3092 128.999 97.4082C129.019 97.8072 129.121 98.2242 129.493 98.4372C129.846 98.6392 130.258 98.5182 130.475 98.1842C130.725 97.7972 130.807 97.2552 130.941 96.8202C131.096 96.3152 131.251 95.8112 131.406 95.3062C131.762 94.1452 132.119 92.9842 132.475 91.8242C132.596 91.4302 131.979 91.2612 131.858 91.6542C131.326 93.3872 130.794 95.1192 130.262 96.8522C130.2 97.0542 130.138 97.2562 130.076 97.4582C130.048 97.5492 130.001 97.8462 129.896 97.8912C129.6 98.0192 129.631 97.1282 129.631 97.0142C129.628 96.1212 129.715 95.2282 129.84 94.3452C129.984 93.3252 130.163 92.3092 130.331 91.2932C130.397 90.8892 129.781 90.7162 129.714 91.1222Z" fill="#351A07"/>
<path d="M126.937 98.8825C128.711 98.6665 130.501 98.6535 132.278 98.8425C132.687 98.8865 132.684 98.2465 132.278 98.2025C130.501 98.0135 128.711 98.0275 126.937 98.2425C126.534 98.2925 126.529 98.9325 126.937 98.8825Z" fill="#351A07"/>
<path d="M135.966 93.1043C137.17 94.2453 138.715 95.0023 140.361 95.2293C140.533 95.2533 140.702 95.1873 140.754 95.0063C140.797 94.8573 140.702 94.6363 140.531 94.6133C138.991 94.4013 137.548 93.7233 136.419 92.6523C136.119 92.3693 135.666 92.8203 135.966 93.1043Z" fill="#351A07"/>
<path d="M140.06 92.6297C140.31 93.5217 140.568 94.4277 140.599 95.3587C140.625 96.1337 140.464 96.8817 140.169 97.5957C139.617 98.9297 138.716 100.083 138.07 101.369C137.74 102.026 137.468 102.719 137.35 103.448C137.2 104.373 137.253 105.31 137.291 106.241C137.369 108.164 137.472 110.085 137.601 112.005C137.748 114.189 137.928 116.371 138.141 118.55C138.181 118.956 138.821 118.96 138.781 118.55C138.402 114.667 138.127 110.774 137.958 106.876C137.917 105.934 137.841 104.978 137.918 104.036C137.982 103.264 138.217 102.528 138.553 101.833C139.187 100.522 140.093 99.3577 140.678 98.0207C141.021 97.2377 141.242 96.4177 141.243 95.5577C141.244 94.5007 140.96 93.4687 140.678 92.4587C140.566 92.0647 139.949 92.2327 140.06 92.6297Z" fill="#351A07"/>
<path d="M131.797 119.068C132.436 119.372 133.135 119.425 133.833 119.457C134.566 119.49 135.301 119.478 136.033 119.421C137.493 119.306 138.935 119.018 140.326 118.56C140.715 118.432 140.549 117.814 140.156 117.943C138.851 118.372 137.502 118.657 136.133 118.773C135.468 118.829 134.8 118.848 134.133 118.829C133.466 118.81 132.734 118.809 132.12 118.517C131.75 118.34 131.425 118.891 131.797 119.068Z" fill="#351A07"/>
<path d="M127.386 98.7042C125.737 100.368 123.396 101.151 121.822 102.902C120.947 103.876 120.458 105.084 120.136 106.339C119.774 107.751 119.515 109.194 119.216 110.621C118.858 112.333 118.499 114.045 118.141 115.757C118.057 116.159 118.673 116.33 118.758 115.927C119.371 112.997 119.945 110.055 120.603 107.134C120.884 105.886 121.252 104.607 122.07 103.594C122.784 102.709 123.734 102.067 124.684 101.462C125.783 100.763 126.914 100.089 127.837 99.1582C128.128 98.8642 127.676 98.4112 127.386 98.7042Z" fill="#351A07"/>
<path d="M112.292 114.957C114.581 116.189 117.148 116.844 119.747 116.856C120.159 116.858 120.159 116.218 119.747 116.216C117.261 116.205 114.804 115.583 112.614 114.405C112.252 114.209 111.929 114.761 112.292 114.957Z" fill="#351A07"/>
<path d="M118.92 102.875C120.093 103.646 121.142 104.59 122.041 105.668C122.152 105.801 122.379 105.782 122.493 105.668C122.624 105.537 122.604 105.349 122.493 105.216C121.559 104.097 120.46 103.124 119.243 102.323C118.897 102.096 118.577 102.65 118.92 102.875Z" fill="#351A07"/>
<path d="M120.772 102.765C121.643 103.481 122.514 104.198 123.385 104.914C123.518 105.024 123.707 105.045 123.837 104.914C123.95 104.801 123.971 104.572 123.837 104.462C122.966 103.746 122.095 103.029 121.224 102.313C121.091 102.203 120.902 102.183 120.772 102.313C120.659 102.426 120.638 102.655 120.772 102.765Z" fill="#351A07"/>
<path d="M136.248 107.395C137.038 107.134 137.857 107.007 138.69 107.02C139.102 107.027 139.102 106.387 138.69 106.38C137.805 106.366 136.918 106.5 136.078 106.778C135.914 106.832 135.807 106.999 135.855 107.171C135.899 107.332 136.084 107.45 136.248 107.395Z" fill="#351A07"/>
<path d="M137.04 108.383C137.65 108.39 138.264 108.212 138.771 107.871C138.91 107.778 138.983 107.585 138.886 107.433C138.797 107.295 138.597 107.219 138.448 107.318C138.335 107.394 138.217 107.462 138.093 107.521C138.081 107.527 137.975 107.573 138.045 107.544C138.02 107.554 137.994 107.564 137.969 107.574C137.905 107.598 137.841 107.62 137.775 107.64C137.648 107.678 137.52 107.705 137.389 107.725C137.47 107.713 137.353 107.729 137.339 107.73C137.312 107.733 137.285 107.735 137.257 107.737C137.184 107.742 137.112 107.743 137.039 107.742C136.872 107.74 136.712 107.89 136.719 108.062C136.728 108.238 136.861 108.38 137.04 108.383Z" fill="#351A07"/>
<path d="M126.823 89.9931C126.773 90.1171 126.622 90.2071 126.47 90.2491C126.288 90.3001 126.06 90.3041 125.882 90.2701C125.586 90.2141 125.304 90.0981 125.014 90.0151C124.67 89.9161 124.33 89.8751 123.975 89.9321C123.804 89.9591 123.709 90.1721 123.752 90.3251C123.802 90.5071 123.974 90.5761 124.145 90.5481C124.481 90.4941 124.826 90.6221 125.14 90.7241C125.445 90.8221 125.747 90.9161 126.07 90.9291C126.649 90.9511 127.211 90.7221 127.439 90.1631C127.504 90.0031 127.368 89.8111 127.216 89.7701C127.033 89.7191 126.889 89.8331 126.823 89.9931Z" fill="#351A07"/>
<path d="M125.427 142.426C127.057 143.396 129.01 143.779 130.884 143.467C131.758 143.321 132.64 142.972 133.228 142.284C133.539 141.92 133.771 141.503 134.027 141.101C134.286 140.694 134.561 140.298 134.854 139.915C135.526 139.034 136.291 138.225 137.12 137.49C137.429 137.216 136.975 136.765 136.668 137.038C135.3 138.252 134.168 139.663 133.205 141.214C132.971 141.592 132.72 141.962 132.358 142.229C132.021 142.477 131.628 142.636 131.225 142.742C130.372 142.968 129.45 142.991 128.579 142.871C127.578 142.733 126.617 142.391 125.75 141.875C125.395 141.663 125.073 142.215 125.427 142.426Z" fill="#B56D0F"/>
<path d="M136.749 134.746C135.763 135.475 135.286 136.767 135.608 137.959C135.715 138.356 136.332 138.188 136.225 137.789C135.987 136.905 136.313 135.859 137.072 135.298C137.211 135.196 137.281 135.021 137.187 134.86C137.107 134.724 136.889 134.643 136.749 134.746Z" fill="#B56D0F"/>
<path d="M125.865 141.769C126.625 140.992 127.772 140.605 128.845 140.837C129.877 141.06 130.727 141.782 131.155 142.741C131.322 143.116 131.874 142.791 131.707 142.418C131.208 141.3 130.144 140.435 128.937 140.204C127.661 139.96 126.32 140.389 125.412 141.316C125.125 141.611 125.577 142.064 125.865 141.769Z" fill="#B56D0F"/>
<path d="M128.488 138.589C129.313 138.576 130.132 138.657 130.937 138.836C131.106 138.873 131.283 138.785 131.33 138.613C131.374 138.453 131.276 138.257 131.107 138.22C130.248 138.029 129.368 137.937 128.488 137.951C128.077 137.956 128.076 138.595 128.488 138.589Z" fill="#B56D0F"/>
<path d="M129.075 137.271C129.96 137.265 130.839 137.357 131.702 137.553C131.87 137.591 132.048 137.501 132.095 137.33C132.139 137.169 132.041 136.975 131.872 136.937C130.955 136.729 130.015 136.626 129.075 136.633C128.663 136.635 128.662 137.274 129.075 137.271Z" fill="#B56D0F"/>
<path d="M129.852 136.065C130.503 136.03 131.091 136.089 131.709 136.252C131.871 136.294 132.064 136.198 132.102 136.029C132.14 135.862 132.052 135.681 131.879 135.636C131.22 135.462 130.533 135.39 129.852 135.427C129.685 135.436 129.524 135.568 129.532 135.747C129.539 135.911 129.673 136.075 129.852 136.065Z" fill="#B56D0F"/>
<path d="M106.142 141.468C107.897 142.068 109.672 141.176 111.01 140.077C111.729 139.486 112.382 138.82 113.087 138.212C113.788 137.607 114.53 137.052 115.306 136.547C116.197 135.968 117.13 135.458 118.097 135.018C118.471 134.847 118.146 134.296 117.774 134.466C116.155 135.204 114.638 136.141 113.248 137.251C111.875 138.348 110.708 139.809 109.102 140.581C108.234 140.998 107.239 141.167 106.313 140.851C105.922 140.718 105.754 141.336 106.142 141.468Z" fill="#B56D0F"/>
<path d="M116.798 132.897C116.162 133.544 115.889 134.457 116.027 135.349C116.054 135.52 116.268 135.614 116.42 135.572C116.602 135.522 116.67 135.35 116.643 135.179C116.638 135.143 116.635 135.121 116.633 135.099C116.629 135.055 116.626 135.01 116.625 134.966C116.622 134.872 116.624 134.777 116.632 134.683C116.639 134.597 116.64 134.581 116.663 134.471C116.682 134.378 116.706 134.287 116.735 134.197C116.835 133.887 117.015 133.588 117.25 133.349C117.371 133.226 117.373 133.02 117.25 132.897C117.128 132.775 116.919 132.773 116.798 132.897Z" fill="#B56D0F"/>
<path d="M106.43 140.004C107.336 139.886 108.238 140.22 108.84 140.92C108.953 141.051 109.177 141.036 109.292 140.92C109.422 140.79 109.405 140.599 109.292 140.468C108.599 139.662 107.485 139.228 106.429 139.365C106.258 139.387 106.109 139.496 106.109 139.685C106.111 139.84 106.258 140.026 106.43 140.004Z" fill="#B56D0F"/>
<path d="M108.888 136.092C109.194 136.159 109.496 136.239 109.793 136.335C109.939 136.382 110.084 136.433 110.228 136.487C110.302 136.515 110.377 136.544 110.45 136.574C110.448 136.573 110.541 136.612 110.5 136.594C110.542 136.612 110.584 136.63 110.625 136.648C110.778 136.715 110.976 136.698 111.063 136.533C111.136 136.394 111.112 136.167 110.948 136.095C110.339 135.827 109.709 135.615 109.058 135.473C108.895 135.437 108.704 135.522 108.665 135.696C108.628 135.86 108.713 136.054 108.888 136.092Z" fill="#B56D0F"/>
<path d="M109.951 134.77C110.185 134.816 110.414 134.881 110.636 134.967C110.665 134.978 110.697 134.988 110.724 135.002C110.651 134.965 110.722 135.001 110.735 135.007C110.793 135.032 110.851 135.06 110.907 135.088C111.014 135.141 111.117 135.199 111.219 135.261C111.362 135.348 111.577 135.297 111.657 135.146C111.739 134.99 111.695 134.802 111.542 134.708C111.107 134.442 110.621 134.25 110.12 134.152C109.956 134.12 109.767 134.198 109.727 134.375C109.691 134.535 109.775 134.736 109.951 134.77Z" fill="#B56D0F"/>
<path d="M110.443 133.406C110.57 133.441 110.695 133.48 110.819 133.523C110.877 133.543 110.935 133.564 110.992 133.586C111.025 133.598 111.057 133.611 111.09 133.624C111.098 133.627 111.188 133.664 111.149 133.648C111.11 133.632 111.199 133.67 111.207 133.674C111.239 133.688 111.271 133.703 111.303 133.717C111.359 133.743 111.414 133.769 111.469 133.797C111.587 133.856 111.702 133.919 111.815 133.985C111.96 134.069 112.172 134.023 112.253 133.87C112.334 133.717 112.293 133.522 112.138 133.432C111.661 133.153 111.145 132.936 110.613 132.788C110.452 132.743 110.258 132.843 110.22 133.011C110.181 133.182 110.271 133.358 110.443 133.406Z" fill="#B56D0F"/>
<path d="M117.417 81.415C117.874 82.255 118.33 83.095 118.787 83.935C118.984 84.297 119.536 83.974 119.339 83.612C118.882 82.772 118.425 81.932 117.969 81.092C117.772 80.73 117.22 81.053 117.417 81.415Z" fill="#87542D"/>
<path d="M29.5283 91.2237C29.3273 95.7787 29.5763 100.355 30.2703 104.861C30.4533 106.052 30.7113 107.322 31.5783 108.158C32.2873 108.841 33.2873 109.116 34.2513 109.316C37.6423 110.02 41.1263 110.104 44.5783 110.391C53.2523 111.111 61.8183 113.126 69.9043 116.35C70.4273 116.558 70.9713 116.789 71.3203 117.23C71.6803 117.684 71.7753 118.286 71.8573 118.86C72.3513 122.28 72.8443 125.699 73.3383 129.119C73.3913 129.487 73.4653 129.892 73.7583 130.12C73.9773 130.291 74.2723 130.323 74.5493 130.343C79.2813 130.696 84.1003 129.828 88.4123 127.845C88.7853 127.673 89.1923 127.452 89.3103 127.058C89.3623 126.885 89.3493 126.7 89.3363 126.521C88.9093 120.641 88.4823 114.761 88.0553 108.881C87.8863 106.556 87.6793 104.114 86.3843 102.175C84.4183 99.2317 80.5863 98.3057 77.1153 97.6117C72.1033 96.6097 67.0913 95.6077 62.0793 94.6057C59.3353 94.0567 56.5633 93.4997 54.0123 92.3487C52.3693 91.6077 50.8293 90.6247 49.1133 90.0737C47.2303 89.4697 45.2213 89.4127 43.2443 89.3607C39.8943 89.2727 36.5453 89.1857 33.1963 89.0977L29.5283 91.2237Z" fill="#C23F37"/>
<path d="M33.0306 103.049C28.9016 102.948 25.1996 100.2 22.8906 96.7758C20.5816 93.3518 19.4306 89.2978 18.3426 85.3138C17.2546 81.3298 16.1626 77.2678 13.9476 73.7828C11.7326 70.2978 8.16665 67.4138 4.04965 67.0888C2.49365 66.9658 0.614646 67.4448 0.118646 68.9248C-0.458354 70.6478 1.18865 72.2178 2.48365 73.4918C6.43965 77.3848 8.34765 82.9348 9.16265 88.4248C9.97765 93.9148 9.82865 99.5018 10.3566 105.027C10.5406 106.959 10.8266 108.938 11.7896 110.623C13.3396 113.335 16.3656 114.827 19.3156 115.856C28.0196 118.894 37.6446 119.231 46.5396 116.809C49.1356 116.102 51.8396 115.04 53.3536 112.816C53.8966 112.018 54.2646 111.025 54.0276 110.089C53.7506 108.996 52.7416 108.267 51.7766 107.684C46.0926 104.254 39.3766 102.559 32.7456 102.883L33.0306 103.049Z" fill="#6DA8C6"/>
<path d="M14.7145 94.1758C15.9495 98.1508 17.5275 102.543 21.2605 104.385C24.7745 106.118 28.9355 104.969 32.8485 104.77C39.0155 104.456 45.2725 106.741 49.7855 110.956C50.6825 111.794 51.5765 113.037 51.0525 114.147C50.6935 114.908 49.8105 115.244 49.0035 115.483C42.8465 117.311 36.2405 117.607 29.9445 116.337C26.3985 115.622 22.8995 114.39 19.9835 112.25C17.0665 110.11 14.7685 106.989 14.1035 103.433C13.5945 100.709 13.9535 97.6028 12.1875 95.4668L14.7145 94.1758Z" fill="#6DA8C6"/>
<path d="M52.7038 49.8018C53.8108 49.4028 55.0228 49.3858 56.1338 49.7718C58.0698 50.4448 60.1327 51.8638 61.7197 53.1508C63.7947 54.8338 65.4617 73.2098 65.5247 75.0288C65.6117 77.5618 60.8838 87.3608 59.6858 88.9548C58.1348 91.0178 57.9058 93.7798 56.7298 96.0768C56.5808 96.3668 55.8748 94.0258 55.6318 94.2428C55.2768 94.5608 54.0127 96.0898 53.5387 96.1448C49.9897 96.5608 48.5838 94.3548 45.2298 93.1238C42.9828 92.2998 40.5118 92.5028 38.1178 92.4848C34.5138 92.4588 30.9137 91.9028 27.4688 90.8398C28.5417 86.0668 30.5038 81.5458 32.4298 77.0498C33.8248 73.7928 35.2198 70.5358 36.6158 67.2788C37.8408 64.4208 39.0607 61.5538 40.5527 58.8248C42.5837 55.1098 45.6007 51.3608 49.8027 50.8448L52.7038 49.8018Z" fill="#8E571F"/>
<path d="M53.7529 89.5997C54.0859 89.2767 54.4979 89.0477 54.9479 88.9347L72.8269 84.4467C73.2709 84.3357 73.7259 84.2187 74.1009 83.9567C74.4619 83.7047 74.8649 83.4137 74.9969 82.9937C76.3669 78.6467 83.9429 78.5117 83.9429 78.5117C84.3379 79.4997 80.8569 81.1157 79.9899 81.2787C80.6649 80.9607 83.9949 80.1957 84.5469 80.6977C85.0989 81.1997 84.8979 82.3617 84.1539 82.4187C84.6159 82.3847 85.0669 82.7747 85.1009 83.2367C85.1349 83.6987 84.7449 84.1497 84.2819 84.1837C85.1129 84.5207 84.9899 86.0067 84.1149 86.2017C84.6319 86.4947 84.5629 87.3247 84.1359 87.7377C83.7089 88.1507 83.0839 88.2637 82.4999 88.3747C76.8109 89.4527 71.5439 92.0457 66.1579 94.1737C60.7719 96.3007 54.9799 97.9997 49.2499 97.1597C49.0699 95.4367 49.6779 93.6467 50.8709 92.3907L53.7529 89.5997Z" fill="#F6A472"/>
<path d="M43.9758 59.5955C43.7048 63.4585 43.4338 67.3205 43.1628 71.1835C42.9018 74.9055 42.6418 78.6665 43.2358 82.3505C43.7968 85.8325 45.1038 89.1445 46.4018 92.4245C46.9038 93.6935 47.4058 94.9615 47.9078 96.2305C48.1188 96.7645 48.4978 97.4025 49.0658 97.3195C49.7128 97.2255 57.0978 89.6305 58.1058 88.7295C59.7878 87.2265 58.3718 86.8935 58.2368 84.6425C58.1008 82.3915 57.4088 80.2135 57.0608 77.9845C56.1138 71.9285 57.7138 65.5835 56.0658 59.6805C55.8518 58.9145 55.5778 58.1505 55.1018 57.5145C54.5078 56.7215 53.6308 56.1765 52.7048 55.8235C50.5308 54.9935 47.9908 55.1835 45.9638 56.3285L43.9758 59.5955Z" fill="#8E571F"/>
<path d="M124.023 139.151C123.925 140.279 123.512 141.358 122.858 142.28C122.758 142.421 122.833 142.636 122.973 142.718C123.133 142.812 123.31 142.745 123.411 142.603C124.133 141.587 124.556 140.391 124.664 139.152C124.679 138.98 124.506 138.832 124.344 138.832C124.157 138.831 124.038 138.978 124.023 139.151Z" fill="#721E1C"/>
<path d="M136.467 141.425C137.051 141.548 137.635 141.672 138.219 141.795C138.382 141.83 138.573 141.747 138.612 141.572C138.649 141.411 138.564 141.216 138.389 141.179C137.805 141.056 137.221 140.932 136.636 140.809C136.473 140.774 136.282 140.857 136.243 141.032C136.207 141.192 136.292 141.388 136.467 141.425Z" fill="#721E1C"/>
<path d="M138.584 140.251C143.193 138.635 147.827 137.088 152.484 135.614C153.802 135.196 155.123 134.785 156.445 134.379C156.837 134.259 156.67 133.641 156.275 133.762C151.606 135.196 146.959 136.702 142.336 138.278C141.027 138.724 139.72 139.177 138.415 139.634C138.028 139.77 138.194 140.388 138.584 140.251Z" fill="#721E1C"/>
<path d="M134.52 143.934C138.034 145.043 141.561 146.114 145.098 147.147C148.619 148.175 152.15 149.165 155.692 150.117C157.699 150.657 159.71 151.184 161.723 151.699C162.122 151.801 162.292 151.184 161.893 151.082C158.323 150.168 154.762 149.217 151.213 148.227C147.68 147.242 144.158 146.218 140.647 145.157C138.657 144.556 136.672 143.942 134.69 143.317C134.296 143.194 134.128 143.811 134.52 143.934Z" fill="#721E1C"/>
<path d="M70.9549 117.639C72.4489 115.713 74.3179 114.111 76.4529 112.934C76.8139 112.735 76.4909 112.183 76.1299 112.382C73.9519 113.582 72.0269 115.222 70.5029 117.187C70.2529 117.508 70.7029 117.964 70.9549 117.639Z" fill="#721E1C"/>
<path d="M71.5769 118.372C72.9839 117.324 74.5549 116.522 76.2339 116.008C76.6259 115.888 76.4589 115.27 76.0639 115.391C74.3349 115.92 72.7049 116.739 71.2549 117.819C70.9269 118.063 71.2459 118.618 71.5769 118.372Z" fill="#721E1C"/>
<path d="M73.0786 126.911C77.2276 126.003 81.3776 125.095 85.5266 124.187C86.7026 123.93 87.8776 123.673 89.0536 123.415C89.4556 123.327 89.2856 122.71 88.8836 122.798C84.7346 123.706 80.5846 124.614 76.4356 125.522C75.2596 125.779 74.0846 126.036 72.9086 126.294C72.5076 126.382 72.6776 126.999 73.0786 126.911Z" fill="#721E1C"/>
<path d="M41.1918 94.4509C42.5578 97.2419 45.1028 99.2419 47.8568 100.565C51.1238 102.133 54.7168 102.777 58.2138 103.616C61.7948 104.475 65.2679 105.696 68.4979 107.48C71.3149 109.036 73.9708 111.035 75.8898 113.647C77.9978 116.517 78.9388 119.963 79.6708 123.397C79.7628 123.831 79.8528 124.265 79.9418 124.699C80.0248 125.102 80.6408 124.931 80.5588 124.529C79.8458 121.05 79.0738 117.481 77.1838 114.422C75.4748 111.655 72.9758 109.467 70.2348 107.758C67.2078 105.87 63.8508 104.474 60.4188 103.522C56.8158 102.522 53.0738 101.987 49.5778 100.621C46.7338 99.5099 43.9538 97.7519 42.2968 95.1229C42.0948 94.8019 41.9118 94.4699 41.7448 94.1289C41.5638 93.7579 41.0118 94.0819 41.1918 94.4509Z" fill="#721E1C"/>
<path d="M29.9448 96.4297C32.2318 95.8857 34.5358 95.4147 36.8528 95.0167C36.7218 94.9427 36.5908 94.8677 36.4598 94.7937C37.0618 97.1957 37.7398 99.5777 38.4938 101.936C38.6188 102.327 39.2368 102.16 39.1108 101.766C38.3568 99.4077 37.6788 97.0257 37.0768 94.6237C37.0318 94.4447 36.8508 94.3717 36.6838 94.4007C34.3668 94.7987 32.0628 95.2697 29.7758 95.8137C29.3748 95.9087 29.5448 96.5257 29.9448 96.4297Z" fill="#721E1C"/>
<path d="M30.7277 98.1747C32.8257 97.7217 34.9407 97.3497 37.0677 97.0677C37.2407 97.0447 37.3857 96.9367 37.3877 96.7477C37.3897 96.5927 37.2397 96.4047 37.0677 96.4277C34.8827 96.7177 32.7117 97.0927 30.5577 97.5577C30.1557 97.6447 30.3257 98.2617 30.7277 98.1747Z" fill="#721E1C"/>
<path d="M51.1978 52.8333C53.4608 52.4263 55.6588 53.6723 57.0958 55.3443C58.7408 57.2583 59.3858 59.8273 59.7858 62.2613C60.0048 63.5983 60.1688 64.9443 60.3338 66.2883C60.5108 67.7343 60.6628 69.1853 60.7198 70.6413C60.8338 73.5483 60.5358 76.4513 60.2818 79.3433C60.1378 80.9843 59.9938 82.6243 59.8488 84.2653C59.7408 85.4893 59.6228 86.8783 58.6808 87.7763C58.3818 88.0603 58.8348 88.5123 59.1328 88.2283C60.0138 87.3893 60.2798 86.1813 60.4148 85.0173C60.5828 83.5673 60.6778 82.1063 60.8058 80.6523C61.0738 77.6053 61.4228 74.5453 61.3818 71.4823C61.3418 68.5273 60.9298 65.5603 60.4898 62.6423C60.1028 60.0813 59.4948 57.4023 57.8848 55.3063C56.2868 53.2253 53.7118 51.7333 51.0288 52.2163C50.6228 52.2893 50.7948 52.9063 51.1978 52.8333Z" fill="#5B341A"/>
<path d="M45.2851 55.4444C43.1141 60.3564 42.1161 65.7134 42.0791 71.0714C42.0421 76.5454 43.0151 81.9944 44.6171 87.2174C45.5281 90.1864 46.6441 93.0894 47.8951 95.9314C48.0601 96.3074 48.6121 95.9824 48.4471 95.6084C46.2621 90.6444 44.5071 85.4664 43.5321 80.1224C42.5791 74.8944 42.4041 69.4904 43.3101 64.2424C43.8131 61.3304 44.6411 58.4714 45.8361 55.7674C46.0021 55.3934 45.4511 55.0684 45.2851 55.4444Z" fill="#5B341A"/>
<path d="M46.75 93.2443C50.708 90.0783 54.931 87.2434 59.361 84.7814C59.518 84.6944 59.693 84.6044 59.869 84.6414C60.131 84.6974 60.251 84.9954 60.329 85.2514C60.487 85.7724 60.645 86.2923 60.803 86.8133C60.874 87.0483 60.945 87.3013 60.866 87.5343C60.794 87.7443 60.613 87.8944 60.439 88.0334C56.798 90.9484 53.158 93.8633 49.517 96.7783C49.273 96.9733 49.015 97.1754 48.707 97.2274C48.215 97.3104 47.729 96.9723 47.482 96.5393C47.235 96.1063 47.173 95.5943 47.117 95.0993C47.034 94.3653 46.951 93.6314 46.867 92.8964L46.75 93.2443Z" fill="#5B341A"/>
<path d="M41.7787 62.1098C41.9757 62.7568 42.1737 63.4028 42.3707 64.0498C42.4197 64.2098 42.5967 64.3278 42.7637 64.2728C42.9247 64.2208 43.0397 64.0508 42.9867 63.8798C42.7897 63.2328 42.5917 62.5868 42.3947 61.9398C42.3457 61.7798 42.1687 61.6618 42.0017 61.7168C41.8407 61.7688 41.7257 61.9388 41.7787 62.1098Z" fill="#5B341A"/>
<path d="M29.1884 89.2221C32.9904 90.5331 37.0534 89.6701 40.9684 90.0771C42.0644 90.1911 43.1464 90.4241 44.1764 90.8191C44.5614 90.9671 44.7274 90.3481 44.3464 90.2021C40.5894 88.7611 36.5034 89.5961 32.5974 89.2621C31.4954 89.1681 30.4054 88.9671 29.3584 88.6051C28.9684 88.4701 28.8014 89.0881 29.1884 89.2221Z" fill="#5B341A"/>
<path d="M59.9694 39.5404C59.9884 39.5544 60.0084 39.5684 60.0274 39.5834C60.0694 39.6154 59.9714 39.5374 60.0424 39.5954C60.0754 39.6234 60.1094 39.6504 60.1414 39.6794C60.2064 39.7364 60.2684 39.7974 60.3284 39.8594C60.3914 39.9254 60.4504 39.9954 60.5084 40.0654C60.5314 40.0964 60.5434 40.1114 60.5544 40.1274C60.5824 40.1664 60.6094 40.2064 60.6354 40.2464C60.7324 40.3954 60.8174 40.5534 60.8874 40.7164C60.8964 40.7424 60.9054 40.7644 60.9144 40.7874C60.9294 40.8284 60.9434 40.8694 60.9564 40.9104C60.9864 41.0024 61.0104 41.0954 61.0314 41.1884C61.0684 41.3524 61.2654 41.4634 61.4244 41.4114C61.5954 41.3554 61.6874 41.1934 61.6474 41.0184C61.4634 40.1974 60.9684 39.4794 60.2914 38.9874C60.1554 38.8884 59.9294 38.9594 59.8534 39.1024C59.7664 39.2694 59.8244 39.4354 59.9694 39.5404Z" fill="#511616"/>
<path d="M59.6553 40.8925C60.0723 40.8195 60.4883 40.7465 60.9043 40.6735C61.0693 40.6445 61.1773 40.4335 61.1273 40.2805C61.0693 40.1025 60.9113 40.0265 60.7343 40.0575C60.3183 40.1305 59.9013 40.2035 59.4853 40.2765C59.3203 40.3055 59.2123 40.5165 59.2623 40.6695C59.3193 40.8475 59.4783 40.9235 59.6553 40.8925Z" fill="#511616"/>
<path opacity="0.41" d="M65.7923 50.0958L61.0703 46.5898L64.9463 51.6918L65.7923 50.0958Z" fill="#511616"/>
<path d="M71.5924 44.998C71.7404 45.877 72.6034 46.563 73.4874 46.54C73.6544 46.536 73.8154 46.396 73.8074 46.22C73.7994 46.051 73.6664 45.895 73.4874 45.9C73.4424 45.901 73.3974 45.9011 73.3534 45.8981C73.3344 45.8971 73.3054 45.8901 73.2864 45.8921C73.3304 45.8991 73.3404 45.9001 73.3164 45.8961C73.1954 45.8751 73.1094 45.852 73.0254 45.822C73.0054 45.815 72.9814 45.8091 72.9634 45.7981C72.9214 45.7761 72.8854 45.757 72.8494 45.737C72.8104 45.715 72.7724 45.691 72.7354 45.665C72.7164 45.652 72.6994 45.639 72.6804 45.626C72.6094 45.565 72.5474 45.5051 72.4904 45.4411C72.4754 45.4241 72.4614 45.407 72.4474 45.39C72.3984 45.331 72.4864 45.4471 72.4434 45.3841C72.4174 45.3471 72.3924 45.3111 72.3694 45.2721C72.3464 45.2341 72.3254 45.195 72.3054 45.155C72.2964 45.136 72.2814 45.1141 72.2774 45.0941C72.2464 45.0041 72.2244 44.9171 72.2094 44.8291C72.1814 44.6641 71.9684 44.5561 71.8164 44.6061C71.6374 44.6631 71.5624 44.821 71.5924 44.998Z" fill="#511616"/>
<path d="M61.5184 38.0673C62.3464 39.4873 64.8064 39.4283 65.5644 37.9693C65.7194 37.6713 65.8114 37.3353 66.0304 37.0803C66.6154 36.3983 67.7254 36.6413 68.5204 37.0603C69.3154 37.4793 70.1734 38.0373 71.0404 37.7993C72.2204 37.4753 72.7334 35.8313 73.9464 35.6753C74.5564 35.5973 75.1454 35.9393 75.7604 35.9583C76.7994 35.9913 77.7064 34.9833 77.6914 33.9443C77.6764 32.9043 76.8564 31.9703 75.8574 31.6823C74.7014 31.3493 73.4284 31.7733 72.2744 31.4353C71.3024 31.1513 70.5674 30.3763 69.7134 29.8323C67.3284 28.3123 64.2304 28.6923 61.4784 29.3453C60.5384 29.5683 59.5044 29.8923 59.0384 30.7383C58.7494 31.2633 58.7364 31.9063 58.4494 32.4323C57.8974 33.4433 56.5544 33.7033 55.7444 34.5223C55.0284 35.2453 54.8114 36.4183 55.2214 37.3493C55.6314 38.2813 56.6434 38.9123 57.6604 38.8713C59.0624 38.8153 60.4094 37.6253 61.7254 38.1133L61.5184 38.0673Z" fill="#C23F37"/>
<path d="M74.5085 38.5111C74.4425 38.7861 74.3455 39.0541 74.2205 39.3081C73.1435 39.5251 72.0555 39.6911 70.9625 39.8041C70.7785 39.8231 70.5935 39.7201 70.5385 39.5441C70.4715 39.3311 70.6405 39.1981 70.7945 39.0991C71.7865 38.4641 72.9485 38.1001 74.1245 38.0511C74.2945 38.0441 74.4505 38.1481 74.5015 38.3111C74.5205 38.3761 74.5235 38.4451 74.5085 38.5111Z" fill="#721E1C"/>
<path d="M76.4431 36.3106C77.1551 35.6706 77.6571 34.7986 77.8511 33.8606C77.8861 33.6916 77.8021 33.5146 77.6281 33.4676C77.4691 33.4236 77.2701 33.5206 77.2351 33.6906C77.0601 34.5376 76.6351 35.2796 75.9911 35.8586C75.8621 35.9746 75.8731 36.1936 75.9911 36.3106C76.1191 36.4386 76.3151 36.4266 76.4431 36.3106Z" fill="#721E1C"/>
<path d="M75.6321 34.2091C74.4621 33.9961 73.2321 33.7801 72.0691 34.1481C71.5761 34.3041 71.1091 34.5561 70.7381 34.9201C70.4091 35.2431 70.1621 35.7731 69.7061 35.9371C69.1791 36.1271 68.5051 35.8201 68.0371 35.5901C67.5051 35.3291 67.0011 35.0181 66.4501 34.7951C65.5271 34.4231 64.3861 34.3701 63.6481 35.1501C63.4831 35.3251 63.3531 35.5321 63.2781 35.7621C63.1761 36.0721 63.2781 36.4221 63.1691 36.7211C63.0481 37.0531 62.5291 37.2221 62.2481 36.9921C61.9321 36.7341 61.4771 37.1841 61.7961 37.4441C62.4571 37.9841 63.5851 37.7031 63.8031 36.8321C63.8711 36.5581 63.8061 36.2701 63.8761 35.9991C63.9311 35.7841 64.0761 35.6001 64.2491 35.4661C64.6521 35.1541 65.1751 35.1061 65.6591 35.2131C66.8261 35.4691 67.7421 36.3671 68.9281 36.5771C69.4931 36.6771 70.0151 36.6001 70.4511 36.2091C70.8361 35.8641 71.0771 35.3981 71.5161 35.1071C72.6871 34.3311 74.1681 34.5901 75.4621 34.8261C75.8641 34.8991 76.0371 34.2821 75.6321 34.2091Z" fill="#721E1C"/>
<path d="M51.3184 38.591C51.4704 37.525 51.9444 36.53 52.6784 35.741C53.4424 34.92 54.3874 34.437 55.4664 34.168C56.5194 33.906 57.6554 33.686 58.3724 32.792C59.0564 31.939 59.1924 30.834 59.6084 29.854C60.1114 28.67 61.2324 27.922 62.5354 28.05C62.9444 28.09 62.9424 27.45 62.5354 27.41C61.3544 27.294 60.1604 27.839 59.4634 28.797C58.7984 29.713 58.7064 30.88 58.2044 31.871C57.9494 32.375 57.5864 32.758 57.0794 33.013C56.5484 33.28 55.9484 33.391 55.3754 33.532C54.2414 33.81 53.2224 34.294 52.3854 35.124C51.4934 36.008 50.8784 37.175 50.7004 38.421C50.6754 38.593 50.7424 38.762 50.9234 38.814C51.0744 38.857 51.2944 38.761 51.3184 38.591Z" fill="#721E1C"/>
<path d="M66.6136 29.5137C64.1516 29.7677 61.8766 31.2967 60.7516 33.5107C60.4416 34.1207 60.2686 34.7797 60.0116 35.4107C59.7796 35.9817 59.4276 36.4647 58.9296 36.8307C57.9506 37.5517 56.7406 37.8657 55.7326 38.5387C54.4956 39.3657 53.7056 40.6877 53.5186 42.1577C53.4666 42.5647 54.1066 42.5607 54.1586 42.1577C54.3156 40.9267 55.0256 39.7797 56.0556 39.0907C57.0036 38.4567 58.1216 38.1367 59.0716 37.5077C59.5556 37.1877 59.9836 36.7897 60.2866 36.2907C60.6256 35.7327 60.7936 35.0947 61.0176 34.4877C61.4256 33.3867 62.1396 32.4237 63.0396 31.6747C64.0466 30.8377 65.3086 30.2857 66.6136 30.1507C67.0186 30.1117 67.0226 29.4717 66.6136 29.5137Z" fill="#721E1C"/>
<path d="M56.7445 41.0386C56.3025 41.2406 55.8425 41.4966 55.6725 41.9826C55.6025 42.1836 55.5975 42.4296 55.6655 42.6316C55.7515 42.8866 55.9185 43.0596 56.1655 43.1606C56.3205 43.2246 56.5235 43.0916 56.5585 42.9376C56.6005 42.7516 56.5015 42.6126 56.3355 42.5446C56.4225 42.5796 56.3665 42.5566 56.3465 42.5456C56.3035 42.5206 56.3305 42.5146 56.3535 42.5546C56.3465 42.5436 56.3245 42.5286 56.3155 42.5186C56.2805 42.4816 56.3125 42.4886 56.3215 42.5296C56.3185 42.5156 56.3005 42.4976 56.2935 42.4846C56.2785 42.4566 56.2795 42.4176 56.2955 42.4966C56.2895 42.4646 56.2735 42.4336 56.2655 42.4016C56.2625 42.3896 56.2525 42.3216 56.2595 42.3806C56.2665 42.4396 56.2595 42.3706 56.2595 42.3576C56.2575 42.3226 56.2605 42.2886 56.2615 42.2536C56.2645 42.1886 56.2465 42.3226 56.2605 42.2636C56.2645 42.2446 56.2685 42.2266 56.2735 42.2086C56.2785 42.1906 56.2845 42.1726 56.2905 42.1546C56.3085 42.0916 56.2565 42.2186 56.2865 42.1616C56.3055 42.1256 56.3265 42.0916 56.3485 42.0566C56.3235 42.0846 56.3795 42.0066 56.3485 42.0566C56.3645 42.0396 56.3795 42.0196 56.3955 42.0026C56.4255 41.9716 56.4565 41.9416 56.4895 41.9136C56.5145 41.8886 56.5385 41.8756 56.5575 41.8636C56.7175 41.7546 56.8935 41.6736 57.0695 41.5926C57.2225 41.5226 57.2715 41.2896 57.1845 41.1546C57.0805 40.9956 56.9075 40.9636 56.7445 41.0386Z" fill="#721E1C"/>
<path d="M76.4694 38.1343C76.6904 38.5863 77.1174 38.8523 77.4834 39.1743C77.6604 39.3303 77.7965 39.4593 77.8815 39.6743C77.9665 39.8883 77.9675 40.1453 77.8725 40.3583C77.8015 40.5153 77.8275 40.7023 77.9875 40.7963C78.1245 40.8763 78.3535 40.8403 78.4255 40.6813C78.7115 40.0463 78.5725 39.3623 78.0895 38.8673C77.9085 38.6813 77.6965 38.5283 77.4975 38.3623C77.2895 38.1883 77.1325 38.0373 77.0225 37.8123C76.9465 37.6573 76.7265 37.6153 76.5845 37.6973C76.4255 37.7893 76.3924 37.9783 76.4694 38.1343Z" fill="#721E1C"/>
<path d="M77.7634 46.1672C78.4954 47.2012 78.4974 48.7043 77.6914 49.7043C77.5834 49.8383 77.5604 50.0253 77.6914 50.1563C77.8034 50.2683 78.0344 50.2913 78.1434 50.1563C79.1214 48.9433 79.2264 47.1293 78.3154 45.8433C78.0794 45.5113 77.5244 45.8302 77.7634 46.1672Z" fill="#721E1C"/>
<path d="M76.4337 46.3593C76.4137 47.0563 76.3237 47.7293 76.1577 48.4073C76.1177 48.5693 76.2097 48.7613 76.3807 48.8003C76.5457 48.8383 76.7317 48.7513 76.7737 48.5773C76.9517 47.8513 77.0517 47.1063 77.0727 46.3593C77.0777 46.1923 76.9227 46.0323 76.7527 46.0393C76.5757 46.0473 76.4387 46.1803 76.4337 46.3593Z" fill="#721E1C"/>
<path d="M48.4832 89.4391C48.6912 90.0441 48.9842 90.6172 49.3632 91.1332C49.4622 91.2672 49.6452 91.3482 49.8012 91.2482C49.9342 91.1622 50.0222 90.9552 49.9162 90.8102C49.7382 90.5672 49.5772 90.3131 49.4372 90.0461C49.3682 89.9151 49.3052 89.7812 49.2452 89.6462C49.2302 89.6122 49.2302 89.6111 49.2432 89.6431C49.2362 89.6251 49.2282 89.6082 49.2212 89.5902C49.2072 89.5552 49.1922 89.5192 49.1792 89.4832C49.1512 89.4122 49.1262 89.3401 49.1012 89.2681C49.0472 89.1101 48.8792 88.9892 48.7082 89.0452C48.5502 89.0972 48.4252 89.2701 48.4832 89.4391Z" fill="#5B341A"/>
<path d="M49.7755 88.9525C49.9395 89.3335 50.1035 89.7135 50.2675 90.0945C50.2975 90.1625 50.3905 90.2225 50.4585 90.2415C50.5355 90.2625 50.6365 90.2535 50.7045 90.2095C50.7725 90.1655 50.8325 90.0995 50.8515 90.0185C50.8715 89.9295 50.8555 89.8555 50.8195 89.7725C50.6555 89.3915 50.4915 89.0115 50.3275 88.6305C50.2985 88.5625 50.2045 88.5025 50.1365 88.4835C50.0605 88.4625 49.9575 88.4715 49.8905 88.5155C49.8225 88.5595 49.7625 88.6255 49.7435 88.7065C49.7225 88.7955 49.7395 88.8695 49.7755 88.9525Z" fill="#5B341A"/>
<path d="M55.0359 86.2384C55.2239 86.8714 55.4109 87.5054 55.5989 88.1384C55.6469 88.2984 55.8259 88.4154 55.9919 88.3614C56.1539 88.3084 56.2659 88.1394 56.2149 87.9684C56.0269 87.3354 55.8399 86.7014 55.6519 86.0684C55.6049 85.9084 55.4249 85.7914 55.2589 85.8454C55.0969 85.8974 54.9849 86.0664 55.0359 86.2384Z" fill="#5B341A"/>
<path d="M56.3607 85.6386C56.1887 86.2016 56.3347 86.8126 56.7087 87.2596C56.8167 87.3886 57.0517 87.3786 57.1607 87.2596C57.2867 87.1226 57.2757 86.9446 57.1607 86.8076C57.1637 86.8136 57.1677 86.8196 57.1477 86.7916C57.1327 86.7686 57.1167 86.7466 57.1017 86.7236C57.0727 86.6776 57.0457 86.6296 57.0227 86.5806C57.0247 86.5886 57.0277 86.5946 57.0147 86.5626C57.0057 86.5366 56.9957 86.5116 56.9867 86.4856C56.9697 86.4336 56.9557 86.3806 56.9447 86.3266C56.9397 86.3026 56.9407 86.2676 56.9307 86.2456C56.9377 86.2966 56.9387 86.3046 56.9347 86.2696C56.9277 86.1746 56.9267 86.1196 56.9287 86.0656C56.9297 86.0386 56.9327 86.0116 56.9347 85.9836C56.9387 85.9486 56.9377 85.9566 56.9307 86.0076C56.9467 85.9136 56.9607 85.8606 56.9767 85.8086C57.0257 85.6486 56.9187 85.4526 56.7537 85.4156C56.5817 85.3756 56.4127 85.4666 56.3607 85.6386Z" fill="#5B341A"/>
<path d="M57.7082 84.7722C57.7972 85.4052 57.8872 86.0372 57.9762 86.6702C58.0002 86.8362 58.2202 86.9422 58.3692 86.8932C58.5512 86.8342 58.6182 86.6782 58.5922 86.5002C58.5032 85.8672 58.4132 85.2352 58.3242 84.6022C58.3012 84.4362 58.0802 84.3302 57.9312 84.3792C57.7492 84.4372 57.6832 84.5942 57.7082 84.7722Z" fill="#5B341A"/>
<path d="M83.4047 82.9846C83.8407 82.9256 84.2757 82.8666 84.7117 82.8066C84.7847 82.7966 84.8677 82.7206 84.9027 82.6596C84.9427 82.5906 84.9597 82.4896 84.9347 82.4136C84.9097 82.3366 84.8617 82.2616 84.7877 82.2226C84.7067 82.1796 84.6317 82.1776 84.5417 82.1906C84.1057 82.2496 83.6707 82.3086 83.2347 82.3686C83.1617 82.3786 83.0787 82.4556 83.0437 82.5156C83.0037 82.5846 82.9867 82.6856 83.0117 82.7616C83.0367 82.8386 83.0847 82.9136 83.1587 82.9526C83.2397 82.9956 83.3147 82.9966 83.4047 82.9846Z" fill="#511616"/>
<path d="M84.0026 84.695C84.0166 84.673 84.0316 84.652 84.0476 84.631C84.0306 84.652 84.0146 84.674 83.9976 84.696C84.0436 84.638 84.0956 84.586 84.1536 84.54C84.1326 84.557 84.1106 84.573 84.0886 84.59C84.1546 84.54 84.2256 84.498 84.3026 84.466C84.2776 84.477 84.2516 84.487 84.2266 84.498C84.2996 84.468 84.3746 84.448 84.4526 84.436C84.4246 84.44 84.3956 84.444 84.3676 84.447C84.4456 84.437 84.5236 84.436 84.6016 84.446C84.5736 84.442 84.5446 84.438 84.5166 84.435C84.6306 84.453 84.7096 84.453 84.7886 84.407C84.8546 84.368 84.9186 84.292 84.9356 84.216C84.9546 84.134 84.9506 84.042 84.9036 83.969C84.8616 83.904 84.7926 83.835 84.7126 83.822C84.5966 83.803 84.4846 83.793 84.3676 83.808C84.2216 83.827 84.0976 83.862 83.9616 83.922C83.7506 84.015 83.5726 84.181 83.4496 84.374C83.3596 84.515 83.4156 84.733 83.5646 84.812C83.7226 84.893 83.9066 84.845 84.0026 84.695Z" fill="#511616"/>
<path d="M83.6955 86.4658C84.0355 86.3688 84.3755 86.2718 84.7155 86.1748C84.8765 86.1288 84.9925 85.9468 84.9385 85.7818C84.8855 85.6178 84.7175 85.5098 84.5455 85.5588C84.2055 85.6558 83.8655 85.7528 83.5255 85.8498C83.3645 85.8958 83.2485 86.0778 83.3025 86.2428C83.3555 86.4058 83.5235 86.5148 83.6955 86.4658Z" fill="#511616"/>
<path d="M82.7988 81.7865C82.9718 83.5325 83.1448 85.2785 83.3178 87.0245C83.3578 87.4305 83.9978 87.4345 83.9578 87.0245C83.7848 85.2785 83.6118 83.5325 83.4378 81.7865C83.3978 81.3805 82.7578 81.3765 82.7988 81.7865Z" fill="#511616"/>
<path d="M74.4036 84.9264C74.5096 85.6534 74.6166 86.3804 74.7226 87.1084C74.7476 87.2794 74.9646 87.3734 75.1156 87.3314C75.2986 87.2814 75.3636 87.1094 75.3386 86.9384C75.2326 86.2114 75.1256 85.4844 75.0196 84.7564C74.9946 84.5854 74.7776 84.4914 74.6266 84.5334C74.4436 84.5834 74.3786 84.7554 74.4036 84.9264Z" fill="#511616"/>
<path d="M66.97 73.1267C68.028 76.4337 69.085 79.7397 70.143 83.0467C70.268 83.4377 70.886 83.2707 70.76 82.8767C69.702 79.5697 68.645 76.2637 67.587 72.9577C67.462 72.5657 66.844 72.7327 66.97 73.1267Z" fill="#8E571F"/>
<path d="M66.407 73.3953C65.694 75.7393 65.283 78.1683 65.18 80.6153C65.163 81.0263 65.802 81.0263 65.82 80.6153C65.921 78.2223 66.327 75.8563 67.024 73.5653C67.143 73.1713 66.526 73.0023 66.407 73.3953Z" fill="#8E571F"/>
<path d="M80.4869 56.188C80.6239 56.283 80.7189 56.67 80.7659 56.859C80.8389 57.149 80.8918 57.452 80.8828 57.752C80.8718 58.132 80.6849 58.602 80.5839 58.997C80.4449 59.535 80.3069 60.072 80.1679 60.61C80.1109 60.832 80.2719 60.988 80.4759 61.015C81.0109 61.085 81.3479 61.66 81.4219 62.148C81.5269 62.849 81.2159 63.565 80.9629 64.201C80.8099 64.583 81.4288 64.749 81.5798 64.371C81.9048 63.556 82.2469 62.641 81.9889 61.758C81.7779 61.037 81.2329 60.473 80.4769 60.375C80.5799 60.51 80.6829 60.645 80.7849 60.78C80.9409 60.175 81.0969 59.57 81.2529 58.965C81.3679 58.52 81.5408 58.064 81.5218 57.598C81.4958 56.977 81.3659 56.02 80.8109 55.635C80.4709 55.4 80.1509 55.954 80.4869 56.188Z" fill="#511616"/>
<path d="M86.0016 61.7292C87.4566 60.4642 88.9116 59.1982 90.3666 57.9332C90.6776 57.6622 90.2236 57.2122 89.9146 57.4812C88.4596 58.7462 87.0046 60.0122 85.5496 61.2772C85.2386 61.5482 85.6926 61.9992 86.0016 61.7292Z" fill="#511616"/>
<path d="M83.4557 59.8062C84.2577 61.1042 85.1677 62.3322 86.1737 63.4792C86.4457 63.7892 86.8967 63.3352 86.6257 63.0272C85.6557 61.9202 84.7817 60.7352 84.0077 59.4832C83.7927 59.1332 83.2387 59.4542 83.4557 59.8062Z" fill="#511616"/>
<path d="M85.5049 63.2581C84.1599 63.3111 82.8898 64.0781 82.2308 65.2551C82.0298 65.6151 82.5819 65.9381 82.7829 65.5781C83.3299 64.5991 84.3809 63.9421 85.5039 63.8981C85.9149 63.8821 85.9169 63.2421 85.5049 63.2581Z" fill="#511616"/>
<path d="M78.6464 66.8801C78.7714 66.9361 78.8904 67.0031 79.0024 67.0821C79.0604 67.1271 79.0894 67.1481 79.1174 67.1721C79.1674 67.2161 79.2164 67.2621 79.2624 67.3101C79.3084 67.3581 79.3524 67.4091 79.3944 67.4611C79.4364 67.5131 79.3494 67.4001 79.3894 67.4541C79.4354 67.5181 79.4544 67.5461 79.4724 67.5741C79.5084 67.6301 79.5424 67.6881 79.5734 67.7471C79.5904 67.7791 79.6064 67.8121 79.6214 67.8451C79.6294 67.8611 79.6354 67.8791 79.6434 67.8951C79.6704 67.9661 79.7084 68.0321 79.7854 68.0771C79.8534 68.1171 79.9554 68.1341 80.0314 68.1091C80.1824 68.0601 80.3204 67.8821 80.2544 67.7161C80.0174 67.1121 79.5654 66.5971 78.9684 66.3281C78.8874 66.2921 78.8104 66.2711 78.7214 66.2961C78.6474 66.3171 78.5674 66.3741 78.5304 66.4431C78.4584 66.5821 78.4834 66.8071 78.6464 66.8801Z" fill="#511616"/>
<path d="M21.4035 105.112C26.0105 103.828 30.7575 103.243 35.5355 103.211C37.5985 103.197 39.6335 103.298 41.6625 103.691C43.6505 104.076 45.6065 104.669 47.4595 105.489C49.4755 106.381 51.3925 107.535 53.0245 109.025C53.3285 109.302 53.7815 108.851 53.4765 108.573C50.4785 105.836 46.5895 104.132 42.6595 103.247C40.6495 102.795 38.6115 102.588 36.5535 102.572C34.1205 102.553 31.6855 102.659 29.2675 102.934C26.5525 103.243 23.8665 103.762 21.2345 104.496C20.8375 104.606 21.0055 105.223 21.4035 105.112Z" fill="#396B7F"/>
<path d="M12.1257 106.32C12.2577 108.597 13.5487 110.723 15.5217 111.873C15.8777 112.081 16.2007 111.528 15.8447 111.321C14.0727 110.288 12.8837 108.371 12.7647 106.32C12.7417 105.911 12.1017 105.908 12.1257 106.32Z" fill="#396B7F"/>
<path d="M14.2718 108.133C14.8568 108.649 15.4418 109.165 16.0268 109.681C16.1518 109.792 16.3568 109.814 16.4788 109.681C16.5898 109.56 16.6128 109.347 16.4788 109.229C15.8938 108.713 15.3088 108.197 14.7238 107.682C14.5988 107.571 14.3938 107.549 14.2718 107.682C14.1608 107.802 14.1378 108.015 14.2718 108.133Z" fill="#396B7F"/>
<path d="M3.0735 69.3515C5.7815 69.2045 8.4475 70.4845 10.1285 72.5955C10.5975 73.1855 10.9855 73.8505 11.2635 74.5515C11.4135 74.9295 12.0325 74.7645 11.8805 74.3815C10.8035 71.6735 8.3635 69.6205 5.5355 68.9395C4.7315 68.7455 3.8995 68.6665 3.0735 68.7115C2.6645 68.7345 2.6615 69.3745 3.0735 69.3515Z" fill="#396B7F"/>
<path d="M5.11146 71.4945C6.35746 71.9125 7.45446 72.6875 8.28346 73.7045C8.39246 73.8385 8.62246 73.8175 8.73546 73.7045C8.86746 73.5725 8.84446 73.3865 8.73546 73.2525C7.83746 72.1505 6.62746 71.3295 5.28146 70.8775C4.89046 70.7465 4.72246 71.3635 5.11146 71.4945Z" fill="#396B7F"/>
<path d="M89.527 145.742C93.568 145.528 97.607 145.282 101.644 145.004C105.699 144.724 109.751 144.412 113.801 144.068C116.072 143.875 118.343 143.671 120.612 143.458C121.018 143.42 121.022 142.78 120.612 142.818C116.583 143.197 112.551 143.545 108.517 143.859C104.465 144.175 100.41 144.459 96.354 144.711C94.079 144.852 91.803 144.982 89.527 145.103C89.117 145.124 89.115 145.763 89.527 145.742Z" fill="#721E1C"/>
<path d="M126.643 145.834C124.352 149.715 121.945 153.528 119.423 157.263C118.716 158.31 118 159.351 117.276 160.386C117.039 160.724 117.594 161.044 117.828 160.709C120.412 157.016 122.885 153.247 125.241 149.404C125.901 148.327 126.552 147.244 127.195 146.156C127.405 145.801 126.853 145.479 126.643 145.834Z" fill="#721E1C"/>
<path d="M127.031 132.667C127.614 132.667 128.197 132.667 128.78 132.667C128.947 132.667 129.108 132.52 129.1 132.347C129.092 132.174 128.959 132.027 128.78 132.027C128.197 132.027 127.614 132.027 127.031 132.027C126.864 132.027 126.704 132.174 126.711 132.347C126.719 132.52 126.852 132.667 127.031 132.667Z" fill="#721E1C"/>
<path d="M127.226 133.636C127.55 133.636 127.874 133.636 128.197 133.636C128.364 133.636 128.524 133.489 128.517 133.316C128.509 133.143 128.377 132.996 128.197 132.996C127.873 132.996 127.549 132.996 127.226 132.996C127.059 132.996 126.899 133.143 126.906 133.316C126.914 133.49 127.046 133.636 127.226 133.636Z" fill="#721E1C"/>
<path d="M73.8737 29.495C76.2607 30.371 78.1847 32.393 79.0067 34.792C79.2187 35.411 79.3567 36.049 79.4197 36.7C79.4897 37.427 79.5437 38.158 79.9547 38.786C80.3117 39.332 80.8287 39.742 81.2147 40.264C81.6757 40.887 81.6937 41.584 81.5567 42.321C81.4147 43.086 81.1907 43.833 81.2847 44.618C81.3637 45.282 81.6457 45.907 82.2437 46.252C82.6007 46.458 82.9237 45.905 82.5667 45.7C82.0567 45.406 81.9087 44.81 81.8997 44.257C81.8887 43.526 82.1387 42.825 82.2357 42.105C82.3357 41.36 82.2487 40.632 81.8117 40.003C81.4407 39.469 80.9197 39.06 80.5507 38.526C80.1017 37.876 80.1177 37.109 80.0217 36.355C79.9437 35.739 79.8047 35.134 79.5987 34.548C79.1687 33.329 78.4867 32.208 77.6107 31.259C76.6277 30.195 75.4037 29.375 74.0447 28.876C73.6567 28.736 73.4897 29.354 73.8737 29.495Z" fill="#C23F37"/>
<path d="M65.7792 26.4287C64.0532 25.6957 62.1772 25.5287 60.3182 25.6207C59.3912 25.6667 58.4202 25.7217 57.5342 26.0197C56.7772 26.2737 56.1222 26.7227 55.5272 27.2457C54.9362 27.7657 54.4072 28.3507 53.8302 28.8867C53.1982 29.4737 52.5052 29.9267 51.7262 30.2977C50.9162 30.6827 50.0712 30.9997 49.2962 31.4567C48.6182 31.8567 48.0102 32.3727 47.5162 32.9857C46.4082 34.3587 45.8212 36.1327 45.9782 37.8977C46.0142 38.3047 46.6542 38.3087 46.6182 37.8977C46.4862 36.4157 46.9022 34.9397 47.7552 33.7237C48.1732 33.1287 48.7042 32.6037 49.3102 32.2017C50.0222 31.7297 50.8172 31.4077 51.5932 31.0597C52.3402 30.7247 53.0562 30.3537 53.6992 29.8437C54.2852 29.3787 54.7992 28.8337 55.3312 28.3087C55.8632 27.7837 56.4172 27.2707 57.0782 26.9107C57.8392 26.4967 58.7012 26.3807 59.5532 26.3107C61.5312 26.1487 63.6032 26.1927 65.4572 26.9807C65.6172 27.0487 65.7982 27.0277 65.8952 26.8657C65.9742 26.7327 65.9382 26.4967 65.7792 26.4287Z" fill="#C23F37"/>
<path d="M118.375 38.5572C120.525 41.7422 122.675 44.9272 124.825 48.1112C123.853 43.8432 122.881 39.5752 121.909 35.3072C130.688 35.2422 139.262 30.1882 143.569 22.5372C144.276 21.2812 144.885 19.9192 144.929 18.4792C144.965 17.2962 144.616 16.1392 144.246 15.0152C143.022 11.3032 141.43 7.55524 138.539 4.92524C135.83 2.46024 132.217 1.20724 128.61 0.576242C122.649 -0.466758 116.514 0.0292418 110.555 1.08424C105.33 2.00924 100.076 3.40624 95.6387 6.31624C91.2017 9.22624 87.6527 13.8622 87.1227 19.1422C86.5027 25.3152 90.1917 31.4092 95.4077 34.7682C100.624 38.1272 107.105 39.0542 113.29 38.5802L118.375 38.5572Z" fill="#EAD8AD"/>
<path d="M97.8262 17.3635C96.2242 20.4715 97.1062 24.5385 99.7042 26.8385C102.477 29.2945 106.813 29.5355 109.979 27.7075C113.179 25.8605 115.161 22.0345 114.952 18.3575C114.857 16.6985 114.29 15.0005 113.171 13.7485C112.036 12.4775 110.323 11.8845 108.658 12.3245C106.971 12.7695 105.576 14.1055 104.939 15.7135C104.212 17.5515 104.554 19.6615 105.395 21.3975C107.079 24.8755 111.059 27.3295 114.958 26.8165C118.409 26.3625 121.602 23.4455 121.547 19.8145C121.522 18.1575 120.859 16.5015 119.706 15.3065C119.124 14.7035 118.417 14.2325 117.631 13.9395C117.177 13.7705 116.703 13.6945 116.247 13.8905C115.86 14.0565 115.549 14.3785 115.359 14.7515C114.894 15.6625 115.182 16.6735 115.686 17.5025C116.201 18.3485 116.876 19.1245 117.601 19.7965C118.997 21.0905 120.74 22.0505 122.649 22.2765C124.362 22.4795 126.189 22.0265 127.567 20.9785C129.047 19.8525 129.837 18.0905 129.787 16.2385C129.733 14.2575 128.868 12.3625 127.82 10.7165C127.286 9.8785 126.686 9.0745 126.035 8.3235C125.409 7.6025 124.651 6.9035 123.699 6.6645C122.924 6.4705 122.057 6.6705 121.448 7.1885C120.74 7.7925 120.69 8.7035 121.077 9.5065C121.493 10.3685 122.201 11.1465 122.923 11.7645C123.669 12.4025 124.51 12.9105 125.422 13.2705C126.256 13.5995 127.208 13.7975 128.095 13.5705C128.979 13.3445 129.622 12.6495 129.83 11.7685C130.24 10.0325 129.323 8.1335 128.227 6.8355C127.04 5.4295 125.352 4.4655 123.524 4.2195C121.627 3.9635 119.626 4.4415 118.065 5.5545C117.886 5.6825 117.711 5.8175 117.544 5.9605C117.319 6.1525 117.322 6.2955 117.357 6.5765C117.41 7.0015 117.48 7.4255 117.606 7.8355C117.842 8.6025 118.282 9.3235 119.059 9.6265C120.646 10.2455 122.051 8.4185 121.925 6.9595C121.769 5.1535 119.865 4.1185 118.281 3.7845C116.367 3.3815 114.349 3.6165 112.517 4.2675C110.643 4.9335 108.931 6.0105 107.449 7.3295C105.929 8.6825 104.601 10.3235 103.749 12.1795C102.926 13.9715 102.57 15.9705 103.027 17.9125C103.417 19.5715 104.373 21.0435 105.597 22.2115C108.348 24.8385 112.169 26.0085 115.881 26.3525C118.151 26.5625 120.449 26.4475 122.688 26.0235C124.601 25.6615 126.564 25.1355 128.136 23.9365C129.411 22.9645 130.394 21.5245 129.988 19.8615C129.962 19.7565 129.87 19.6645 129.765 19.6385C128.419 19.3065 127.054 19.9595 126.246 21.0405C125.392 22.1835 125.386 23.6835 126.023 24.9295C126.687 26.2285 127.971 27.1435 129.406 27.3775C130.95 27.6295 132.581 27.2175 133.866 26.3365C136.014 24.8635 137.225 22.0345 136.647 19.4705C136.363 18.2145 135.505 16.6245 134.068 16.4965C132.571 16.3635 131.976 18.1775 132.581 19.3095C133.275 20.6095 134.965 21.1245 136.332 21.2595C137.827 21.4075 139.381 21.0655 140.677 20.3055C140.996 20.1185 141.295 19.9025 141.582 19.6685C141.901 19.4085 141.446 18.9585 141.13 19.2165C140.135 20.0275 138.88 20.5185 137.603 20.6275C136.359 20.7345 134.987 20.5255 133.93 19.8265C133.451 19.5095 133.01 19.0205 132.971 18.4205C132.942 17.9585 133.118 17.4075 133.572 17.2055C134.17 16.9385 134.795 17.3975 135.173 17.8265C135.547 18.2505 135.796 18.7975 135.952 19.3365C136.571 21.4695 135.715 23.8845 134.094 25.3475C132.223 27.0365 129.009 27.4795 127.185 25.4895C126.307 24.5315 125.873 23.0675 126.489 21.8575C127.054 20.7475 128.334 19.9445 129.594 20.2555C129.52 20.1805 129.445 20.1065 129.371 20.0325C129.858 22.0325 127.908 23.5275 126.328 24.2865C125.283 24.7885 124.131 25.0725 123.001 25.3105C121.726 25.5785 120.431 25.7405 119.13 25.7955C114.731 25.9815 109.851 25.0795 106.435 22.1115C104.979 20.8465 103.87 19.1975 103.549 17.2715C103.165 14.9655 104.017 12.6565 105.284 10.7595C106.561 8.8465 108.31 7.2145 110.281 6.0335C112.202 4.8825 114.413 4.1535 116.67 4.2345C117.714 4.2715 118.788 4.4655 119.711 4.9765C120.48 5.4025 121.271 6.1515 121.294 7.0935C121.313 7.8955 120.798 8.8425 119.985 9.0665C119.064 9.3195 118.457 8.4255 118.224 7.6665C118.087 7.2205 118.015 6.7585 117.966 6.2965C117.935 6.3715 117.903 6.4475 117.872 6.5225C119.654 4.9515 122.247 4.3855 124.518 5.0905C126.654 5.7535 128.423 7.5295 129.078 9.6675C129.369 10.6185 129.47 11.9395 128.599 12.6325C127.689 13.3565 126.314 12.9795 125.36 12.5585C124.257 12.0715 123.273 11.3395 122.485 10.4275C121.851 9.6935 120.893 8.4175 121.937 7.6135C122.839 6.9185 123.98 7.2875 124.77 7.9575C125.702 8.7465 126.456 9.8045 127.123 10.8185C128.403 12.7645 129.565 15.2395 129.019 17.6235C128.509 19.8485 126.569 21.2955 124.372 21.6195C122.046 21.9635 119.77 20.9255 118.084 19.3745C117.64 18.9665 117.229 18.5225 116.854 18.0505C116.457 17.5515 116.056 17.0045 115.863 16.3895C115.693 15.8505 115.712 15.2645 116.079 14.8075C116.474 14.3165 116.988 14.3705 117.528 14.5825C119.431 15.3285 120.686 17.3225 120.879 19.3125C121.09 21.4865 120 23.5355 118.263 24.8085C116.387 26.1845 114.021 26.5655 111.788 25.9455C109.441 25.2935 107.373 23.6615 106.187 21.5365C105.038 19.4785 104.706 16.8025 106.162 14.8065C107.406 13.1005 109.754 12.2025 111.674 13.3335C113.443 14.3755 114.263 16.6135 114.321 18.5775C114.389 20.8555 113.591 23.1845 112.174 24.9655C110.743 26.7645 108.683 27.9715 106.386 28.2185C104.156 28.4585 101.786 27.8635 100.1 26.3395C98.5202 24.9115 97.6312 22.7795 97.6562 20.6565C97.6682 19.6265 97.9052 18.6055 98.3782 17.6895C98.5672 17.3215 98.0152 16.9975 97.8262 17.3635Z" fill="black"/>
</svg>
