<svg xmlns="http://www.w3.org/2000/svg" width="20" height="20" viewBox="0 0 20 20" fill="none">
<path d="M12.5415 4.16732C13.3555 4.32612 14.1035 4.7242 14.6899 5.3106C15.2763 5.897 15.6744 6.64504 15.8332 7.45898M12.5415 0.833984C14.2326 1.02185 15.8095 1.77913 17.0134 2.98149C18.2173 4.18385 18.9765 5.75983 19.1665 7.45065M18.3332 14.1007V16.6007C18.3341 16.8327 18.2866 17.0625 18.1936 17.2751C18.1006 17.4878 17.9643 17.6786 17.7933 17.8355C17.6222 17.9924 17.4203 18.1119 17.2005 18.1862C16.9806 18.2606 16.7477 18.2882 16.5165 18.2673C13.9522 17.9887 11.489 17.1124 9.32486 15.709C7.31139 14.4295 5.60431 12.7225 4.32486 10.709C2.91651 8.53499 2.04007 6.05981 1.76653 3.48398C1.7457 3.25354 1.77309 3.02128 1.84695 2.802C1.9208 2.58272 2.03951 2.38123 2.1955 2.21034C2.3515 2.03945 2.54137 1.90291 2.75302 1.80942C2.96468 1.71593 3.19348 1.66754 3.42486 1.66732H5.92486C6.32929 1.66334 6.72136 1.80655 7.028 2.07026C7.33464 2.33397 7.53493 2.70019 7.59153 3.10065C7.69705 3.90071 7.89274 4.68626 8.17486 5.44232C8.28698 5.74059 8.31125 6.06475 8.24479 6.37638C8.17832 6.68802 8.02392 6.97408 7.79986 7.20065L6.74153 8.25898C7.92783 10.3453 9.65524 12.0727 11.7415 13.259L12.7999 12.2007C13.0264 11.9766 13.3125 11.8222 13.6241 11.7557C13.9358 11.6893 14.2599 11.7135 14.5582 11.8257C15.3143 12.1078 16.0998 12.3035 16.8999 12.409C17.3047 12.4661 17.6744 12.67 17.9386 12.9819C18.2029 13.2938 18.3433 13.692 18.3332 14.1007Z" stroke="white" stroke-width="1.5" stroke-linecap="round" stroke-linejoin="round"/>
</svg>
